<svg xmlns="http://www.w3.org/2000/svg" width="16" height="16" viewBox="0 0 16 16">
  <defs>
    <style>
      .cls-1 {
        fill: #8e8e8e;
      }

      .cls-2 {
        fill: #d7d7d9;
      }
    </style>
  </defs>
  <g id="icons">
    <g>
      <polygon class="cls-1" points="12.06 11.54 8.92 8.41 12.06 5.27 9.6 2.81 6.46 5.95 3.32 2.81 0.86 5.27 4 8.41 0.86 11.54 3.32 14.01 6.46 10.87 9.6 14.01 12.06 11.54"/>
      <path class="cls-2" d="M5.7,14.31,2.53,11.14,5.67,8,2.53,4.86,5.7,1.69,8.84,4.83,12,1.69l3.17,3.17L12,8l3.14,3.14L12,14.31,8.84,11.17ZM8.84,9.75,12,12.89l1.76-1.75L10.59,8l3.14-3.14L12,3.11,8.84,6.25,5.7,3.11,3.94,4.86,7.08,8,3.94,11.14,5.7,12.89Z"/>
    </g>
  </g>
</svg>
