<svg xmlns="http://www.w3.org/2000/svg" width="50" height="50" viewBox="0 0 50 50">
  <defs>
    <style>
      .cls-1 {
        fill: #8e8e8e;
      }

      .cls-2 {
        fill: #d7d7d9;
      }
    </style>
  </defs>
  <g id="icons">
    <g>
      <polygon class="cls-1" points="37.78 36.16 27.89 26.28 37.78 16.39 30.03 8.64 20.14 18.52 10.25 8.64 2.5 16.39 12.39 26.28 2.5 36.16 10.25 43.92 20.14 34.03 30.03 43.92 37.78 36.16"/>
      <path class="cls-2" d="M17.75,44.87l-10-10L17.65,25,7.77,15.11l10-10L27.63,15l9.89-9.89,10,10L37.61,25l9.89,9.89-10,10L27.63,35Zm9.88-14.34,9.89,9.88,5.53-5.52L33.16,25l9.89-9.89L37.52,9.59l-9.89,9.88L17.75,9.59l-5.53,5.52L22.11,25l-9.89,9.89,5.53,5.52Z"/>
    </g>
  </g>
</svg>
