<svg xmlns="http://www.w3.org/2000/svg" width="2168.71" height="4321.17" viewBox="0 0 2168.71 4321.17"><defs><style>.cls-1{fill:#e3e4e8;}.cls-10,.cls-11,.cls-13,.cls-14,.cls-15,.cls-16,.cls-2,.cls-3,.cls-4,.cls-5,.cls-6,.cls-8,.cls-9{fill:none;}.cls-13,.cls-14,.cls-15,.cls-16,.cls-2,.cls-4,.cls-9{stroke:#8e8e8e;}.cls-10,.cls-11,.cls-14,.cls-2,.cls-3,.cls-4,.cls-5,.cls-6,.cls-8,.cls-9{stroke-miterlimit:10;}.cls-2,.cls-3{stroke-width:1.65px;}.cls-10,.cls-11,.cls-12,.cls-13,.cls-14,.cls-15,.cls-16,.cls-2,.cls-3,.cls-4,.cls-5,.cls-6,.cls-7,.cls-8,.cls-9{opacity:0.5;}.cls-10,.cls-11,.cls-3,.cls-5,.cls-6,.cls-8{stroke:#d7d7d9;}.cls-4,.cls-5{stroke-width:1.15px;}.cls-6{stroke-width:1.77px;}.cls-7{fill:#8e8e8e;}.cls-8,.cls-9{stroke-width:2px;}.cls-10{stroke-width:1.66px;}.cls-11{stroke-width:6px;}.cls-12{fill:#d7d7d9;}.cls-13,.cls-15,.cls-16{stroke-linecap:round;stroke-linejoin:round;}.cls-13{stroke-width:8px;}.cls-14,.cls-16{stroke-width:4px;}.cls-15{stroke-width:2.29px;}</style></defs><g id="BACKGROUND"><rect class="cls-1" y="0.59" width="2168.71" height="4320"/></g><g id="OBJECTS"><line class="cls-2" x1="573.68" y1="98.5" x2="558.53" y2="113.66"/><line class="cls-2" x1="625.7" y1="46.48" x2="597.84" y2="74.34"/><line class="cls-2" x1="622.33" y1="93.69" x2="517.44" y2="198.58"/><line class="cls-2" x1="675.82" y1="40.2" x2="654.55" y2="61.47"/><line class="cls-3" x1="590.78" y1="169.07" x2="498.49" y2="261.37"/><line class="cls-3" x1="730.04" y1="29.82" x2="631.63" y2="128.22"/><line class="cls-2" x1="696.73" y1="106.97" x2="533.82" y2="269.88"/><line class="cls-2" x1="764.09" y1="39.61" x2="729.61" y2="74.09"/><line class="cls-2" x1="606.06" y1="241.47" x2="566.91" y2="280.63"/><line class="cls-2" x1="846.95" y1="0.59" x2="647.24" y2="200.29"/><line class="cls-3" x1="730.6" y1="160.77" x2="535.51" y2="355.86"/><line class="cls-3" x1="816.77" y1="74.6" x2="771.45" y2="119.92"/><line class="cls-2" x1="736.58" y1="198.63" x2="610.54" y2="324.67"/><line class="cls-2" x1="865.24" y1="69.97" x2="772.11" y2="163.1"/><line class="cls-3" x1="676.47" y1="302.58" x2="610.64" y2="368.41"/><line class="cls-3" x1="852.17" y1="126.88" x2="724.29" y2="254.76"/><line class="cls-2" x1="784.07" y1="238.82" x2="695.14" y2="327.74"/><line class="cls-2" x1="885.45" y1="137.44" x2="818.94" y2="203.95"/><line class="cls-3" x1="748.87" y1="317.86" x2="714.27" y2="352.45"/><line class="cls-3" x1="876.08" y1="190.65" x2="788.39" y2="278.34"/><line class="cls-2" x1="810.68" y1="299.88" x2="789.43" y2="321.13"/><line class="cls-2" x1="848.01" y1="262.56" x2="833.35" y2="277.22"/><line class="cls-4" x1="1435.13" y1="1878.7" x2="1424.57" y2="1889.26"/><line class="cls-4" x1="1471.38" y1="1842.45" x2="1451.97" y2="1861.86"/><line class="cls-4" x1="1469.04" y1="1875.35" x2="1395.93" y2="1948.46"/><line class="cls-4" x1="1506.32" y1="1838.07" x2="1491.49" y2="1852.89"/><line class="cls-5" x1="1447.05" y1="1927.89" x2="1382.72" y2="1992.22"/><line class="cls-5" x1="1544.11" y1="1830.83" x2="1475.52" y2="1899.42"/><line class="cls-4" x1="1520.89" y1="1884.6" x2="1407.34" y2="1998.15"/><line class="cls-4" x1="1567.84" y1="1837.65" x2="1543.81" y2="1861.69"/><line class="cls-4" x1="1457.7" y1="1978.35" x2="1430.41" y2="2005.64"/><line class="cls-4" x1="1625.59" y1="1810.46" x2="1486.4" y2="1949.65"/><line class="cls-5" x1="1544.5" y1="1922.1" x2="1408.52" y2="2058.08"/><line class="cls-5" x1="1604.56" y1="1862.04" x2="1572.97" y2="1893.63"/><line class="cls-4" x1="1548.67" y1="1948.49" x2="1460.82" y2="2036.34"/><line class="cls-4" x1="1638.34" y1="1858.81" x2="1573.44" y2="1923.72"/><line class="cls-5" x1="1506.77" y1="2020.94" x2="1460.89" y2="2066.83"/><line class="cls-5" x1="1629.23" y1="1898.48" x2="1540.1" y2="1987.61"/><line class="cls-4" x1="1581.77" y1="1976.5" x2="1519.79" y2="2038.48"/><line class="cls-4" x1="1652.43" y1="1905.84" x2="1606.07" y2="1952.2"/><line class="cls-5" x1="1557.23" y1="2031.59" x2="1533.12" y2="2055.7"/><line class="cls-5" x1="1645.9" y1="1942.93" x2="1584.78" y2="2004.05"/><line class="cls-4" x1="1600.31" y1="2019.06" x2="1585.5" y2="2033.87"/><line class="cls-4" x1="1626.33" y1="1993.05" x2="1616.11" y2="2003.26"/><rect class="cls-6" x="1224.82" y="1004.77" width="162.08" height="162.08" rx="1.72" transform="translate(3121.38 930.8) rotate(135)"/><circle class="cls-7" cx="1577.41" cy="1088.63" r="2.54"/><path class="cls-7" d="M1423.15,1118a2.54,2.54,0,1,1,3.59,0A2.54,2.54,0,0,1,1423.15,1118Z" transform="translate(124.35 0.59)"/><path class="cls-7" d="M1395,1146.06a2.54,2.54,0,1,1,3.59,0A2.54,2.54,0,0,1,1395,1146.06Z" transform="translate(124.35 0.59)"/><path class="cls-7" d="M1366.93,1174.17a2.54,2.54,0,1,1,3.59,0A2.54,2.54,0,0,1,1366.93,1174.17Z" transform="translate(124.35 0.59)"/><circle class="cls-7" cx="1464.96" cy="1201.07" r="2.54"/><path class="cls-7" d="M1426.14,1064.71a2.53,2.53,0,1,1,3.59,0A2.53,2.53,0,0,1,1426.14,1064.71Z" transform="translate(124.35 0.59)"/><circle class="cls-7" cx="1524.18" cy="1091.62" r="2.54"/><circle class="cls-7" cx="1496.07" cy="1119.73" r="2.54"/><circle class="cls-7" cx="1467.96" cy="1147.84" r="2.54"/><circle class="cls-7" cx="1439.84" cy="1175.95" r="2.54"/><path class="cls-7" d="M1401,1039.59a2.53,2.53,0,1,1,3.59,0A2.53,2.53,0,0,1,1401,1039.59Z" transform="translate(124.35 0.59)"/><circle class="cls-7" cx="1499.06" cy="1066.5" r="2.54"/><circle class="cls-7" cx="1470.95" cy="1094.61" r="2.54"/><circle class="cls-7" cx="1442.83" cy="1122.72" r="2.54"/><path class="cls-7" d="M1288.58,1152a2.53,2.53,0,1,1,3.58,0A2.52,2.52,0,0,1,1288.58,1152Z" transform="translate(124.35 0.59)"/><path class="cls-7" d="M1375.9,1014.47a2.54,2.54,0,1,1,3.59,0A2.54,2.54,0,0,1,1375.9,1014.47Z" transform="translate(124.35 0.59)"/><path class="cls-7" d="M1347.79,1042.58a2.53,2.53,0,1,1,3.59,0A2.53,2.53,0,0,1,1347.79,1042.58Z" transform="translate(124.35 0.59)"/><circle class="cls-7" cx="1445.82" cy="1069.49" r="2.54"/><path class="cls-7" d="M1291.57,1098.81a2.53,2.53,0,1,1,3.58,0A2.54,2.54,0,0,1,1291.57,1098.81Z" transform="translate(124.35 0.59)"/><path class="cls-7" d="M1263.45,1126.92a2.54,2.54,0,1,1,3.59,0A2.54,2.54,0,0,1,1263.45,1126.92Z" transform="translate(124.35 0.59)"/><path class="cls-7" d="M1350.78,989.35a2.54,2.54,0,1,1,3.59,0A2.54,2.54,0,0,1,1350.78,989.35Z" transform="translate(124.35 0.59)"/><circle class="cls-7" cx="1448.82" cy="1016.25" r="2.54"/><circle class="cls-7" cx="1420.7" cy="1044.37" r="2.54"/><circle class="cls-7" cx="1392.59" cy="1072.48" r="2.54"/><path class="cls-7" d="M1238.33,1101.8a2.54,2.54,0,1,1,3.59,0A2.54,2.54,0,0,1,1238.33,1101.8Z" transform="translate(124.35 0.59)"/><path class="cls-7" d="M1325.66,964.23a2.54,2.54,0,1,1,3.59,0A2.54,2.54,0,0,1,1325.66,964.23Z" transform="translate(124.35 0.59)"/><circle class="cls-7" cx="1423.69" cy="991.13" r="2.54"/><circle class="cls-7" cx="1395.58" cy="1019.24" r="2.54"/><circle class="cls-7" cx="1367.47" cy="1047.36" r="2.54"/><path class="cls-7" d="M1213.21,1076.68a2.54,2.54,0,1,1,3.59,0A2.54,2.54,0,0,1,1213.21,1076.68Z" transform="translate(124.35 0.59)"/><rect class="cls-8" x="554.86" y="1229.83" width="138.61" height="138.61" rx="1.47" transform="translate(-550.61 1923.88) rotate(-90)"/><path class="cls-7" d="M531.67,1380.36a2.17,2.17,0,1,1-2.17,2.17A2.17,2.17,0,0,1,531.67,1380.36Z" transform="translate(124.35 0.59)"/><path class="cls-7" d="M531.67,1346.37a2.17,2.17,0,1,1-2.17,2.17A2.17,2.17,0,0,1,531.67,1346.37Z" transform="translate(124.35 0.59)"/><path class="cls-7" d="M531.67,1312.37a2.17,2.17,0,1,1-2.17,2.17A2.17,2.17,0,0,1,531.67,1312.37Z" transform="translate(124.35 0.59)"/><path class="cls-7" d="M531.67,1278.37a2.17,2.17,0,1,1-2.17,2.17A2.17,2.17,0,0,1,531.67,1278.37Z" transform="translate(124.35 0.59)"/><path class="cls-7" d="M531.67,1244.37a2.17,2.17,0,1,1-2.17,2.17A2.17,2.17,0,0,1,531.67,1244.37Z" transform="translate(124.35 0.59)"/><path class="cls-7" d="M562.06,1380.36a2.17,2.17,0,1,1-2.17,2.17A2.18,2.18,0,0,1,562.06,1380.36Z" transform="translate(124.35 0.59)"/><path class="cls-7" d="M562.06,1346.37a2.17,2.17,0,1,1-2.17,2.17A2.17,2.17,0,0,1,562.06,1346.37Z" transform="translate(124.35 0.59)"/><path class="cls-7" d="M562.06,1312.37a2.17,2.17,0,1,1-2.17,2.17A2.17,2.17,0,0,1,562.06,1312.37Z" transform="translate(124.35 0.59)"/><path class="cls-7" d="M562.06,1278.37a2.17,2.17,0,1,1-2.17,2.17A2.17,2.17,0,0,1,562.06,1278.37Z" transform="translate(124.35 0.59)"/><path class="cls-7" d="M562.06,1244.37a2.17,2.17,0,1,1-2.17,2.17A2.17,2.17,0,0,1,562.06,1244.37Z" transform="translate(124.35 0.59)"/><path class="cls-7" d="M592.44,1380.36a2.17,2.17,0,1,1-2.17,2.17A2.17,2.17,0,0,1,592.44,1380.36Z" transform="translate(124.35 0.59)"/><circle class="cls-7" cx="716.79" cy="1349.12" r="2.17"/><circle class="cls-7" cx="716.79" cy="1315.12" r="2.17"/><path class="cls-7" d="M592.44,1278.37a2.17,2.17,0,1,1-2.17,2.17A2.17,2.17,0,0,1,592.44,1278.37Z" transform="translate(124.35 0.59)"/><path class="cls-7" d="M592.44,1244.37a2.17,2.17,0,1,1-2.17,2.17A2.17,2.17,0,0,1,592.44,1244.37Z" transform="translate(124.35 0.59)"/><path class="cls-7" d="M622.82,1380.36a2.17,2.17,0,1,1-2.17,2.17A2.17,2.17,0,0,1,622.82,1380.36Z" transform="translate(124.35 0.59)"/><circle class="cls-7" cx="747.17" cy="1349.12" r="2.17"/><circle class="cls-7" cx="747.17" cy="1315.12" r="2.17"/><path class="cls-7" d="M622.82,1278.37a2.17,2.17,0,1,1-2.17,2.17A2.17,2.17,0,0,1,622.82,1278.37Z" transform="translate(124.35 0.59)"/><path class="cls-7" d="M622.82,1244.37a2.17,2.17,0,1,1-2.17,2.17A2.17,2.17,0,0,1,622.82,1244.37Z" transform="translate(124.35 0.59)"/><path class="cls-7" d="M653.2,1380.36a2.17,2.17,0,1,1-2.17,2.17A2.17,2.17,0,0,1,653.2,1380.36Z" transform="translate(124.35 0.59)"/><circle class="cls-7" cx="777.55" cy="1349.12" r="2.17"/><circle class="cls-7" cx="777.55" cy="1315.12" r="2.17"/><path class="cls-7" d="M653.2,1278.37a2.17,2.17,0,1,1-2.17,2.17A2.17,2.17,0,0,1,653.2,1278.37Z" transform="translate(124.35 0.59)"/><path class="cls-7" d="M653.2,1244.37a2.17,2.17,0,1,1-2.17,2.17A2.17,2.17,0,0,1,653.2,1244.37Z" transform="translate(124.35 0.59)"/><path class="cls-7" d="M683.58,1380.36a2.17,2.17,0,1,1-2.17,2.17A2.17,2.17,0,0,1,683.58,1380.36Z" transform="translate(124.35 0.59)"/><path class="cls-7" d="M683.58,1346.37a2.17,2.17,0,1,1-2.17,2.17A2.17,2.17,0,0,1,683.58,1346.37Z" transform="translate(124.35 0.59)"/><path class="cls-7" d="M683.58,1312.37a2.17,2.17,0,1,1-2.17,2.17A2.17,2.17,0,0,1,683.58,1312.37Z" transform="translate(124.35 0.59)"/><path class="cls-7" d="M683.58,1278.37a2.17,2.17,0,1,1-2.17,2.17A2.17,2.17,0,0,1,683.58,1278.37Z" transform="translate(124.35 0.59)"/><path class="cls-7" d="M683.58,1244.37a2.17,2.17,0,1,1-2.17,2.17A2.17,2.17,0,0,1,683.58,1244.37Z" transform="translate(124.35 0.59)"/><polyline class="cls-9" points="1293.79 453.22 1242.67 525.69 1293.74 598.2"/><polyline class="cls-9" points="1293.88 163.29 1242.77 235.75 1293.83 308.25 1242.72 380.72"/><line class="cls-9" x1="1293.93" y1="18.33" x2="1242.81" y2="90.8"/><polyline class="cls-8" points="1288.7 380.73 1339.77 453.23 1288.65 525.71 1339.72 598.22"/><polyline class="cls-8" points="1339.91 18.35 1288.8 90.81 1339.86 163.3 1288.75 235.76 1339.81 308.26"/><polyline class="cls-9" points="1061.37 1727.29 1010.28 1799.77 1061.37 1872.24 1010.28 1944.72 1061.37 2017.2 1010.28 2089.69 1061.37 2162.17 1010.28 2234.66 1061.37 2307.16"/><polyline class="cls-8" points="1107.36 1727.29 1056.27 1799.77 1107.36 1872.24 1056.27 1944.72 1107.36 2017.2 1056.27 2089.69 1107.36 2162.17 1056.27 2234.66 1107.36 2307.16"/><rect class="cls-10" x="681.61" y="414.99" width="91.89" height="91.89" rx="0.98" transform="translate(663.38 -378.87) rotate(45)"/><rect class="cls-7" x="701.28" y="434.66" width="52.54" height="52.54" rx="2.99" transform="translate(663.38 -378.87) rotate(45)"/><rect class="cls-8" x="1142.35" y="907.86" width="71.13" height="71.13" rx="0.76" transform="translate(1136.45 -556.01) rotate(45)"/><rect class="cls-9" x="1157.58" y="923.09" width="40.67" height="40.67" rx="2.31" transform="translate(1136.46 -556.01) rotate(45)"/><line class="cls-9" x1="829.8" y1="810.62" x2="352.93" y2="1287.48"/><line class="cls-9" x1="1367.92" y1="1292.59" x2="1264.89" y2="1395.62"/><line class="cls-9" x1="1477.76" y1="1645.11" x2="1421.99" y2="1700.88"/><line class="cls-8" x1="1754.93" y1="1012.02" x2="1653.17" y2="1113.77"/><line class="cls-8" x1="665.04" y1="492.24" x2="609.27" y2="548.01"/><line class="cls-8" x1="1320.49" y1="773.43" x2="1180.63" y2="913.3"/><line class="cls-8" x1="616.92" y1="945.15" x2="140.06" y2="1422.02"/><line class="cls-8" x1="550.51" y1="1780.47" x2="73.64" y2="2257.33"/><line class="cls-9" x1="883.44" y1="1824.75" x2="406.58" y2="2301.61"/><line class="cls-8" x1="859.17" y1="1902.66" x2="382.31" y2="2379.52"/><line class="cls-8" x1="2033.76" y1="211.18" x2="1556.89" y2="688.04"/><line class="cls-9" x1="2095.06" y1="68.13" x2="1618.2" y2="544.99"/><polygon class="cls-7" points="1123.13 1110.44 1077.06 1064.38 1123.13 1018.32 1087 982.19 1040.94 1028.25 994.88 982.19 958.75 1018.32 1004.81 1064.38 958.75 1110.44 994.88 1146.56 1040.94 1100.5 1087 1146.56 1123.13 1110.44"/><polygon class="cls-8" points="1158.04 1104.48 1111.97 1058.42 1158.04 1012.36 1121.91 976.23 1075.85 1022.29 1029.79 976.23 993.66 1012.36 1039.72 1058.42 993.66 1104.48 1029.79 1140.6 1075.85 1094.54 1121.91 1140.6 1158.04 1104.48"/><path class="cls-11" d="M249.05,401.56a45.34,45.34,0,0,1,64.12,64.13" transform="translate(124.35 0.59)"/><path class="cls-9" d="M249.65,401a45.34,45.34,0,0,1,64.12,64.13" transform="translate(124.35 0.59)"/><path class="cls-12" d="M872.42,237.25a4.62,4.62,0,0,1,5.14,4h0a4.62,4.62,0,0,1-4,5.14h0a4.62,4.62,0,0,1-5.14-4h0c0-.2,0-.39,0-.57h0A4.62,4.62,0,0,1,872.42,237.25Zm.09-29.19a4.61,4.61,0,0,1,6-2.67h0a4.6,4.6,0,0,1,2.69,5.93h0A4.63,4.63,0,0,1,875.2,214h0a4.64,4.64,0,0,1-3-4.32h0A4.68,4.68,0,0,1,872.51,208.06Zm9.33,60.21a4.64,4.64,0,0,1,6.43,1.17h0a4.62,4.62,0,0,1-1.17,6.41h0a4.61,4.61,0,0,1-6.42-1.15h0a4.61,4.61,0,0,1-.82-2.63h0A4.61,4.61,0,0,1,881.84,268.27Zm10.29-88.66a4.62,4.62,0,0,1,6.52.37h0a4.61,4.61,0,0,1-.39,6.51h0a4.62,4.62,0,0,1-6.52-.38h0a4.59,4.59,0,0,1-1.16-3.06h0A4.54,4.54,0,0,1,892.13,179.61Zm12.48,111.77a4.63,4.63,0,0,1,6.24-1.94h0a4.62,4.62,0,0,1,1.94,6.23h0a4.61,4.61,0,0,1-6.23,1.93h0a4.6,4.6,0,0,1-2.47-4.09h0A4.62,4.62,0,0,1,904.61,291.38ZM922.7,163.47a4.61,4.61,0,0,1,5.58,3.38h0a4.61,4.61,0,0,1-3.36,5.58h0a4.62,4.62,0,0,1-5.58-3.37h0a4.3,4.3,0,0,1-.14-1.12h0A4.63,4.63,0,0,1,922.7,163.47Zm17.42,133.16h.25a4.6,4.6,0,0,1,4.62,4.6h0a4.6,4.6,0,0,1-4.58,4.63h-.29a4.6,4.6,0,0,1-4.61-4.61h0A4.61,4.61,0,0,1,940.12,296.63ZM951.7,166.8a4.61,4.61,0,0,1,5.56-3.4h0a4.64,4.64,0,0,1,3.4,5.59h0a4.62,4.62,0,0,1-5.58,3.38h0a4.61,4.61,0,0,1-3.52-4.48h0A4.08,4.08,0,0,1,951.7,166.8Zm17.92,122.52a4.6,4.6,0,0,1,6.22,1.92h0a4.59,4.59,0,0,1-1.9,6.22h0a4.61,4.61,0,0,1-6.24-1.9h0a4.54,4.54,0,0,1-.54-2.15h0A4.61,4.61,0,0,1,969.62,289.32Zm11.77-109.5a4.62,4.62,0,0,1,6.51-.4h0a4.61,4.61,0,0,1,.41,6.51h0a4.64,4.64,0,0,1-6.52.41h0a4.62,4.62,0,0,1-1.55-3.47h0A4.68,4.68,0,0,1,981.39,179.82Zm10.73,89.42a4.61,4.61,0,0,1,6.41-1.2h0a4.62,4.62,0,0,1,1.19,6.41h0a4.6,4.6,0,0,1-6.41,1.2h0a4.58,4.58,0,0,1-2-3.81h0A4.58,4.58,0,0,1,992.12,269.24Zm9.55-64.1a4.61,4.61,0,0,1,6,2.66h0a4.63,4.63,0,0,1-2.66,6h0a4.61,4.61,0,0,1-6-2.66h0a4.6,4.6,0,0,1-.31-1.66h0A4.61,4.61,0,0,1,1001.67,205.14Zm1,35.88a4.62,4.62,0,0,1,5.12-4h0a4.62,4.62,0,0,1,4,5.11h0a4.62,4.62,0,0,1-5.12,4h0a4.61,4.61,0,0,1-4.08-4.57h0C1002.68,241.39,1002.7,241.2,1002.71,241Z" transform="translate(124.35 0.59)"/><path class="cls-12" d="M884.73,236.59a3.76,3.76,0,0,1,4.2,3.29h0a3.78,3.78,0,0,1-3.29,4.2h0a3.78,3.78,0,0,1-4.2-3.29h0a2.42,2.42,0,0,1,0-.46h0A3.77,3.77,0,0,1,884.73,236.59Zm.08-23.89a3.75,3.75,0,0,1,4.86-2.18h0a3.76,3.76,0,0,1,2.2,4.86h0a3.78,3.78,0,0,1-4.86,2.2h0a3.8,3.8,0,0,1-2.44-3.54h0A3.72,3.72,0,0,1,884.81,212.7ZM892.44,262a3.79,3.79,0,0,1,5.25.95h0a3.78,3.78,0,0,1-1,5.26h0a3.8,3.8,0,0,1-5.26-.95h0a3.9,3.9,0,0,1-.66-2.15h0A3.8,3.8,0,0,1,892.44,262Zm8.42-72.56a3.76,3.76,0,0,1,5.32.33h0a3.78,3.78,0,0,1-.31,5.32h0a3.79,3.79,0,0,1-5.33-.31h0a3.83,3.83,0,0,1-1-2.51h0A3.78,3.78,0,0,1,900.86,189.41Zm10.21,91.47a3.77,3.77,0,0,1,5.1-1.59h0a3.77,3.77,0,0,1,1.58,5.09h0a3.77,3.77,0,0,1-5.08,1.59h0a3.76,3.76,0,0,1-2-3.34h0A3.63,3.63,0,0,1,911.07,280.88Zm14.8-104.65a3.76,3.76,0,0,1,4.57,2.75h0a3.78,3.78,0,0,1-2.76,4.58h0a3.78,3.78,0,0,1-4.56-2.77h0a3.54,3.54,0,0,1-.11-.91h0A3.76,3.76,0,0,1,925.87,176.23Zm14.25,108.94h.2a3.79,3.79,0,0,1,3.8,3.76h0a3.77,3.77,0,0,1-3.77,3.78h-.23a3.76,3.76,0,0,1-3.78-3.76h0A3.78,3.78,0,0,1,940.12,285.17ZM949.59,179a3.76,3.76,0,0,1,4.56-2.77h0v0h0a3.79,3.79,0,0,1,2.77,4.57h0a3.78,3.78,0,0,1-4.56,2.78h0a3.78,3.78,0,0,1-2.88-3.67h0A3.39,3.39,0,0,1,949.59,179Zm14.66,100.24a3.79,3.79,0,0,1,5.11,1.56h0a3.79,3.79,0,0,1-1.57,5.11h0a3.76,3.76,0,0,1-5.1-1.57h0a3.72,3.72,0,0,1-.45-1.77h0A3.82,3.82,0,0,1,964.25,279.19Zm9.64-89.59a3.75,3.75,0,0,1,5.32-.32h0a3.75,3.75,0,0,1,.34,5.31h0a3.79,3.79,0,0,1-5.34.34h0a3.81,3.81,0,0,1-1.27-2.84h0A3.79,3.79,0,0,1,973.89,189.6Zm8.76,73.15a3.78,3.78,0,0,1,5.26-1h0a3.76,3.76,0,0,1,1,5.24h0a3.77,3.77,0,0,1-5.24,1h0a3.82,3.82,0,0,1-1.65-3.12h0A3.87,3.87,0,0,1,982.65,262.75Zm7.83-52.43a3.77,3.77,0,0,1,4.87,2.17h0a3.77,3.77,0,0,1-2.18,4.87h0a3.77,3.77,0,0,1-4.87-2.17h0a3.75,3.75,0,0,1-.25-1.35h0A3.76,3.76,0,0,1,990.48,210.32Zm.86,29.36a3.77,3.77,0,0,1,4.18-3.32h0a3.78,3.78,0,0,1,3.31,4.2h0a3.78,3.78,0,0,1-4.19,3.3h0a3.78,3.78,0,0,1-3.33-3.75h0A2.08,2.08,0,0,1,991.34,239.68Z" transform="translate(124.35 0.59)"/><path class="cls-12" d="M895.25,236a3.06,3.06,0,0,1,3.4,2.66h0a3.06,3.06,0,0,1-2.68,3.41h0a3.07,3.07,0,0,1-3.4-2.67h0c0-.12,0-.25,0-.37h0A3.06,3.06,0,0,1,895.25,236Zm.06-19.35h0a3.05,3.05,0,0,1,3.94-1.77h0a3.05,3.05,0,0,1,1.78,3.94h0a3.08,3.08,0,0,1-3.94,1.78h0a3.05,3.05,0,0,1-2-2.86h0A2.92,2.92,0,0,1,895.31,216.67Zm6.18,39.92a3.06,3.06,0,0,1,4.26.77h0a3.08,3.08,0,0,1-.77,4.26h0a3.08,3.08,0,0,1-4.26-.77h0a3.06,3.06,0,0,1-.54-1.75h0A3,3,0,0,1,901.49,256.59Zm6.83-58.78a3,3,0,0,1,4.3.24h0a3.07,3.07,0,0,1-.25,4.32h0a3.06,3.06,0,0,1-4.32-.24h0a3.14,3.14,0,0,1-.76-2h0A3,3,0,0,1,908.32,197.81Zm8.26,74.09a3.07,3.07,0,0,1,4.14-1.28h0a3.06,3.06,0,0,1,1.28,4.12h0a3.06,3.06,0,0,1-4.12,1.3h0a3.09,3.09,0,0,1-1.65-2.73h0A3.16,3.16,0,0,1,916.58,271.9Zm12-84.78a3,3,0,0,1,3.7,2.23h0a3.09,3.09,0,0,1-2.23,3.71h0a3.06,3.06,0,0,1-3.7-2.25h0a2.6,2.6,0,0,1-.1-.72h0A3.05,3.05,0,0,1,928.58,187.12Zm11.54,88.27h.17a3,3,0,0,1,3.06,3h0a3.07,3.07,0,0,1-3.05,3.08h0l-.09,0h0l-.09,0h0a3.07,3.07,0,0,1-3.06-3.06h0A3.06,3.06,0,0,1,940.12,275.39Zm7.67-86.07a3.05,3.05,0,0,1,3.69-2.24h0a3.07,3.07,0,0,1,2.26,3.69h0A3.07,3.07,0,0,1,950,193h0a3.05,3.05,0,0,1-2.33-3h0A3.08,3.08,0,0,1,947.79,189.32Zm11.88,81.23a3,3,0,0,1,4.12,1.26h0a3,3,0,0,1-1.26,4.13h0a3.06,3.06,0,0,1-4.13-1.26h0a3,3,0,0,1-.36-1.44h0A3,3,0,0,1,959.67,270.55ZM967.48,198a3,3,0,0,1,4.31-.28h0a3,3,0,0,1,.27,4.32h0a3.07,3.07,0,0,1-4.32.27h0a3.1,3.1,0,0,1-1-2.3h0A3,3,0,0,1,967.48,198Zm7.1,59.26h0a3.07,3.07,0,0,1,4.26-.78h0a3.05,3.05,0,0,1,.79,4.24h0a3.06,3.06,0,0,1-4.25.8h0a3,3,0,0,1-1.33-2.52h0A3.2,3.2,0,0,1,974.58,257.22Zm6.34-42.49a3.07,3.07,0,0,1,4,1.77h0a3.06,3.06,0,0,1-1.77,3.95h0a3.06,3.06,0,0,1-4-1.77h0a2.92,2.92,0,0,1-.2-1.09h0A3.08,3.08,0,0,1,980.92,214.73Zm.69,23.8a3.07,3.07,0,0,1,3.4-2.69h0a3.06,3.06,0,0,1,2.67,3.39h0a3,3,0,0,1-3.4,2.68h0a3,3,0,0,1-2.69-3h0A2.06,2.06,0,0,1,981.61,238.53Z" transform="translate(124.35 0.59)"/><path class="cls-7" d="M635.59,1126a4.93,4.93,0,0,1,6.45-2.59h0a4.91,4.91,0,0,1,2.58,6.47h0a4.93,4.93,0,0,1-6.45,2.59h0c-.19-.1-.37-.18-.54-.28h0A4.93,4.93,0,0,1,635.59,1126Z" transform="translate(124.35 0.59)"/><path class="cls-7" d="M608.71,1110.27a4.91,4.91,0,0,1,.71-6.92h0a4.92,4.92,0,0,1,6.92.69h0a4.94,4.94,0,0,1-.71,6.93h0a4.94,4.94,0,0,1-5.58.44h0A5,5,0,0,1,608.71,1110.27Z" transform="translate(124.35 0.59)"/><path class="cls-7" d="M669.26,1133.89a5,5,0,0,1,4.52-5.3h0a4.93,4.93,0,0,1,5.29,4.51h0a4.93,4.93,0,0,1-4.51,5.31h0a5,5,0,0,1-2.86-.65h0A4.93,4.93,0,0,1,669.26,1133.89Z" transform="translate(124.35 0.59)"/><path class="cls-7" d="M593,1076.93a4.92,4.92,0,0,1,3.83-5.81h0a4.93,4.93,0,0,1,5.81,3.84h0a4.93,4.93,0,0,1-3.84,5.81h0a4.81,4.81,0,0,1-3.45-.56h0A4.87,4.87,0,0,1,593,1076.93Z" transform="translate(124.35 0.59)"/><path class="cls-7" d="M702.77,1125.26a4.93,4.93,0,0,1,1.55-6.8h0a4.92,4.92,0,0,1,6.78,1.55h0a4.92,4.92,0,0,1-1.54,6.78h0a4.9,4.9,0,0,1-5.1.09h0A4.85,4.85,0,0,1,702.77,1125.26Z" transform="translate(124.35 0.59)"/><path class="cls-7" d="M594.43,1040.08a4.93,4.93,0,0,1,6.11-3.34h0a4.92,4.92,0,0,1,3.34,6.1h0a4.92,4.92,0,0,1-6.09,3.34h0a4.75,4.75,0,0,1-1.11-.47h0A4.94,4.94,0,0,1,594.43,1040.08Z" transform="translate(124.35 0.59)"/><path class="cls-7" d="M726.63,1095.31l.06-.12h0l.07-.11h0a4.9,4.9,0,0,1,6.72-1.81h0a4.91,4.91,0,0,1,1.82,6.7h0l-.09.15h0l-.07.12h0a4.9,4.9,0,0,1-6.72,1.79h0A4.9,4.9,0,0,1,726.63,1095.31Z" transform="translate(124.35 0.59)"/><path class="cls-7" d="M613,1015.12a4.92,4.92,0,0,1-.16-7h0a4.94,4.94,0,0,1,7-.14h0a4.91,4.91,0,0,1,.13,7h0a4.9,4.9,0,0,1-6,.86h0A4.88,4.88,0,0,1,613,1015.12Z" transform="translate(124.35 0.59)"/><path class="cls-7" d="M735.67,1064.17a4.93,4.93,0,0,1,5.11-4.72h0a4.91,4.91,0,0,1,4.72,5.1h0a4.92,4.92,0,0,1-5.1,4.73h0a4.88,4.88,0,0,1-2.27-.65h0A4.92,4.92,0,0,1,735.67,1064.17Z" transform="translate(124.35 0.59)"/><path class="cls-7" d="M640.94,994.68a4.91,4.91,0,0,1,3.11-6.21h0a4.91,4.91,0,0,1,6.23,3.1h0a4.94,4.94,0,0,1-3.11,6.23h0a4.94,4.94,0,0,1-4-.42h0A5,5,0,0,1,640.94,994.68Z" transform="translate(124.35 0.59)"/><path class="cls-7" d="M729.19,1032.66a4.92,4.92,0,0,1,2.33-6.56h0a4.93,4.93,0,0,1,6.55,2.34h0a4.92,4.92,0,0,1-2.33,6.56h0a4.91,4.91,0,0,1-4.58-.2h0A4.93,4.93,0,0,1,729.19,1032.66Z" transform="translate(124.35 0.59)"/><path class="cls-7" d="M675.16,989.53a4.91,4.91,0,0,1,5.64-4.07h0a4.94,4.94,0,0,1,4.08,5.65h0a4.93,4.93,0,0,1-5.64,4.07h0a4.79,4.79,0,0,1-1.7-.61h0A4.91,4.91,0,0,1,675.16,989.53Z" transform="translate(124.35 0.59)"/><path class="cls-7" d="M708.82,1007.77a4.93,4.93,0,0,1-1-6.89h0a4.94,4.94,0,0,1,6.89-1h0a4.9,4.9,0,0,1,1,6.88h0a4.91,4.91,0,0,1-6.39,1.32h0A5.39,5.39,0,0,1,708.82,1007.77Z" transform="translate(124.35 0.59)"/><path class="cls-7" d="M641.57,1114.27a4,4,0,0,1,5.29-2.12h0a4,4,0,0,1,2.11,5.29h0a4,4,0,0,1-5.29,2.11h0a3.61,3.61,0,0,1-.44-.22h0A4,4,0,0,1,641.57,1114.27Z" transform="translate(124.35 0.59)"/><path class="cls-7" d="M619.57,1101.41a4,4,0,0,1,.59-5.66h0a4,4,0,0,1,5.66.58h0a4,4,0,0,1-.57,5.66h0a4,4,0,0,1-4.57.36h0A4,4,0,0,1,619.57,1101.41Z" transform="translate(124.35 0.59)"/><path class="cls-7" d="M669.11,1120.75a4,4,0,0,1,3.7-4.34h0a4,4,0,0,1,4.34,3.69h0a4,4,0,0,1-3.69,4.34h0a4.12,4.12,0,0,1-2.34-.54h0A4.06,4.06,0,0,1,669.11,1120.75Z" transform="translate(124.35 0.59)"/><path class="cls-7" d="M606.68,1074.13a4,4,0,0,1,3.14-4.74h0a4,4,0,0,1,4.74,3.14h0a4,4,0,0,1-3.14,4.75h0a4,4,0,0,1-2.82-.46h0A4,4,0,0,1,606.68,1074.13Z" transform="translate(124.35 0.59)"/><path class="cls-7" d="M696.54,1113.68a4,4,0,0,1,1.27-5.56h0a4,4,0,0,1,5.54,1.26h0a4,4,0,0,1-1.26,5.55h0a4,4,0,0,1-4.17.08h0A4,4,0,0,1,696.54,1113.68Z" transform="translate(124.35 0.59)"/><path class="cls-7" d="M607.9,1044a4,4,0,0,1,5-2.74h0a4,4,0,0,1,2.75,5h0a4,4,0,0,1-5,2.73h0a3.91,3.91,0,0,1-.89-.38h0A4,4,0,0,1,607.9,1044Z" transform="translate(124.35 0.59)"/><path class="cls-7" d="M716.05,1089.17h0l0-.06h0a.84.84,0,0,0,.06-.14h0a4.05,4.05,0,0,1,5.51-1.49h0a4,4,0,0,1,1.48,5.5h0l-.07.12h0l-.06.1h0a4,4,0,0,1-5.5,1.47h0A4,4,0,0,1,716.05,1089.17Z" transform="translate(124.35 0.59)"/><path class="cls-7" d="M623.11,1023.56a4,4,0,0,1-.11-5.69h0a4,4,0,0,1,5.7-.11h0a4,4,0,0,1,.12,5.7h0a4,4,0,0,1-4.93.69h0A3.56,3.56,0,0,1,623.11,1023.56Z" transform="translate(124.35 0.59)"/><path class="cls-7" d="M723.45,1063.7a4,4,0,0,1,4.18-3.87h0a4,4,0,0,1,3.87,4.18h0a4,4,0,0,1-4.18,3.86h0a4,4,0,0,1-1.87-.53h0A4.09,4.09,0,0,1,723.45,1063.7Z" transform="translate(124.35 0.59)"/><path class="cls-7" d="M646,1006.84a4,4,0,0,1,2.55-5.08h0a4,4,0,0,1,5.08,2.53h0a4,4,0,0,1-2.54,5.11h0a4.09,4.09,0,0,1-3.31-.35h0A4.07,4.07,0,0,1,646,1006.84Z" transform="translate(124.35 0.59)"/><path class="cls-7" d="M718.14,1037.92a4,4,0,0,1,1.92-5.37h0a4,4,0,0,1,5.36,1.91h0a4,4,0,0,1-1.9,5.37h0a4.05,4.05,0,0,1-3.76-.16h0A4,4,0,0,1,718.14,1037.92Z" transform="translate(124.35 0.59)"/><path class="cls-7" d="M674,1002.63a4,4,0,0,1,4.6-3.34h0a4,4,0,0,1,3.33,4.63h0a4,4,0,0,1-4.61,3.33h0a4.07,4.07,0,0,1-1.38-.5h0A4,4,0,0,1,674,1002.63Z" transform="translate(124.35 0.59)"/><path class="cls-7" d="M701.5,1017.55a4,4,0,0,1-.83-5.63h0a4,4,0,0,1,5.65-.81h0a4,4,0,0,1,.81,5.63h0a4,4,0,0,1-5.25,1.07h0A1.6,1.6,0,0,1,701.5,1017.55Z" transform="translate(124.35 0.59)"/><path class="cls-7" d="M646.68,1104.26a3.25,3.25,0,0,1,4.27-1.71h0a3.27,3.27,0,0,1,1.72,4.29h0a3.28,3.28,0,0,1-4.29,1.71h0l-.35-.19h0A3.26,3.26,0,0,1,646.68,1104.26Z" transform="translate(124.35 0.59)"/><path class="cls-7" d="M628.85,1093.84h0a3.26,3.26,0,0,1,.48-4.58h0a3.24,3.24,0,0,1,4.58.46h0a3.27,3.27,0,0,1-.46,4.59h0a3.25,3.25,0,0,1-3.7.3h0A3.29,3.29,0,0,1,628.85,1093.84Z" transform="translate(124.35 0.59)"/><path class="cls-7" d="M669,1109.51a3.26,3.26,0,0,1,3-3.52h0a3.29,3.29,0,0,1,3.51,3h0a3.28,3.28,0,0,1-3,3.52h0a3.28,3.28,0,0,1-1.91-.44h0A3.22,3.22,0,0,1,669,1109.51Z" transform="translate(124.35 0.59)"/><path class="cls-7" d="M618.41,1071.74a3.25,3.25,0,0,1,2.53-3.84h0a3.27,3.27,0,0,1,3.86,2.54h0a3.27,3.27,0,0,1-2.54,3.86h0a3.34,3.34,0,0,1-2.29-.38h0A3.2,3.2,0,0,1,618.41,1071.74Z" transform="translate(124.35 0.59)"/><path class="cls-7" d="M691.21,1103.78a3.25,3.25,0,0,1,1-4.5h0a3.27,3.27,0,0,1,4.49,1h0a3.25,3.25,0,0,1-1,4.49h0a3.26,3.26,0,0,1-3.39.06h0A3.27,3.27,0,0,1,691.21,1103.78Z" transform="translate(124.35 0.59)"/><path class="cls-7" d="M619.4,1047.33a3.25,3.25,0,0,1,4-2.23h0a3.3,3.3,0,0,1,2.23,4h0a3.27,3.27,0,0,1-4.06,2.22h0a3,3,0,0,1-.71-.3h0A3.23,3.23,0,0,1,619.4,1047.33Z" transform="translate(124.35 0.59)"/><path class="cls-7" d="M707,1083.93l.05-.08h0l0-.07h0a3.24,3.24,0,0,1,4.44-1.2h0a3.27,3.27,0,0,1,1.21,4.46h0l-.06.07h0s0,.07,0,.1h0a3.27,3.27,0,0,1-4.46,1.18h0A3.25,3.25,0,0,1,707,1083.93Z" transform="translate(124.35 0.59)"/><path class="cls-7" d="M631.72,1030.78a3.26,3.26,0,0,1-.1-4.61h0a3.27,3.27,0,0,1,4.61-.11h0a3.27,3.27,0,0,1,.09,4.62h0a3.26,3.26,0,0,1-4,.57h0A3.82,3.82,0,0,1,631.72,1030.78Z" transform="translate(124.35 0.59)"/><path class="cls-7" d="M713,1063.3a3.23,3.23,0,0,1,3.37-3.13h0a3.26,3.26,0,0,1,3.14,3.38h0a3.28,3.28,0,0,1-3.38,3.14h0a3.25,3.25,0,0,1-1.52-.45h0A3.19,3.19,0,0,1,713,1063.3Z" transform="translate(124.35 0.59)"/><path class="cls-7" d="M650.23,1017.23a3.23,3.23,0,0,1,2-4.12h0a3.24,3.24,0,0,1,4.13,2.06h0a3.25,3.25,0,0,1-2.07,4.12h0a3.24,3.24,0,0,1-2.66-.27h0A3.13,3.13,0,0,1,650.23,1017.23Z" transform="translate(124.35 0.59)"/><path class="cls-7" d="M708.71,1042.4h0a3.27,3.27,0,0,1,1.56-4.34h0a3.25,3.25,0,0,1,4.33,1.54h0a3.26,3.26,0,0,1-1.53,4.35h0a3.26,3.26,0,0,1-3-.12h0A3.33,3.33,0,0,1,708.71,1042.4Z" transform="translate(124.35 0.59)"/><path class="cls-7" d="M672.9,1013.81a3.28,3.28,0,0,1,3.74-2.7h0a3.26,3.26,0,0,1,2.7,3.75h0a3.26,3.26,0,0,1-3.74,2.7h0a3.13,3.13,0,0,1-1.12-.4h0A3.29,3.29,0,0,1,672.9,1013.81Z" transform="translate(124.35 0.59)"/><path class="cls-7" d="M695.23,1025.91a3.28,3.28,0,0,1-.67-4.57h0a3.27,3.27,0,0,1,4.57-.65h0a3.25,3.25,0,0,1,.65,4.57h0a3.25,3.25,0,0,1-4.24.86h0A3.37,3.37,0,0,1,695.23,1025.91Z" transform="translate(124.35 0.59)"/><path class="cls-12" d="M1518.91,1762.05a4.92,4.92,0,0,1,6.45-2.59h0a4.91,4.91,0,0,1,2.59,6.46h0a4.92,4.92,0,0,1-6.46,2.59h0c-.19-.09-.37-.17-.54-.27h0A4.93,4.93,0,0,1,1518.91,1762.05Z" transform="translate(124.35 0.59)"/><path class="cls-7" d="M1492,1746.34a4.92,4.92,0,0,1,.71-6.93h0a4.92,4.92,0,0,1,6.92.7h0a5,5,0,0,1-.7,6.93h0a5,5,0,0,1-5.59.44h0A5.15,5.15,0,0,1,1492,1746.34Z" transform="translate(124.35 0.59)"/><path class="cls-7" d="M1552.58,1770a5,5,0,0,1,4.52-5.3h0a4.92,4.92,0,0,1,5.29,4.51h0a4.92,4.92,0,0,1-4.5,5.31h0a5,5,0,0,1-2.87-.66h0A4.92,4.92,0,0,1,1552.58,1770Z" transform="translate(124.35 0.59)"/><path class="cls-7" d="M1476.27,1713a4.92,4.92,0,0,1,3.83-5.81h0a4.93,4.93,0,0,1,5.81,3.84h0a4.93,4.93,0,0,1-3.84,5.81h0a4.92,4.92,0,0,1-3.45-.56h0A4.87,4.87,0,0,1,1476.27,1713Z" transform="translate(124.35 0.59)"/><path class="cls-7" d="M1586.09,1761.32a4.93,4.93,0,0,1,1.55-6.79h0a4.91,4.91,0,0,1,6.78,1.55h0a4.91,4.91,0,0,1-1.54,6.78h0a4.92,4.92,0,0,1-5.1.09h0A4.87,4.87,0,0,1,1586.09,1761.32Z" transform="translate(124.35 0.59)"/><path class="cls-12" d="M1477.75,1676.15a4.93,4.93,0,0,1,6.11-3.34h0a4.91,4.91,0,0,1,3.34,6.09h0a4.93,4.93,0,0,1-6.09,3.35h0a4.75,4.75,0,0,1-1.11-.47h0A4.94,4.94,0,0,1,1477.75,1676.15Z" transform="translate(124.35 0.59)"/><path class="cls-12" d="M1610,1731.37l.07-.11h0l.06-.11h0a4.9,4.9,0,0,1,6.72-1.81h0a4.91,4.91,0,0,1,1.82,6.7h0a1.15,1.15,0,0,0-.08.14h0l-.08.13h0a4.91,4.91,0,0,1-6.72,1.79h0A4.91,4.91,0,0,1,1610,1731.37Z" transform="translate(124.35 0.59)"/><path class="cls-7" d="M1496.35,1651.18a4.92,4.92,0,0,1-.16-7h0a5,5,0,0,1,7-.15h0a4.93,4.93,0,0,1,.13,7h0a4.91,4.91,0,0,1-6,.86h0A4.55,4.55,0,0,1,1496.35,1651.18Z" transform="translate(124.35 0.59)"/><path class="cls-12" d="M1619,1700.24a4.94,4.94,0,0,1,5.11-4.72h0a4.91,4.91,0,0,1,4.72,5.09h0a4.92,4.92,0,0,1-5.1,4.74h0a4.92,4.92,0,0,1-2.27-.65h0A4.94,4.94,0,0,1,1619,1700.24Z" transform="translate(124.35 0.59)"/><path class="cls-7" d="M1524.26,1630.75a4.9,4.9,0,0,1,3.12-6.21h0a4.9,4.9,0,0,1,6.22,3.1h0a4.94,4.94,0,0,1-3.11,6.23h0a4.9,4.9,0,0,1-4-.43h0A4.92,4.92,0,0,1,1524.26,1630.75Z" transform="translate(124.35 0.59)"/><path class="cls-7" d="M1612.52,1668.72a4.9,4.9,0,0,1,2.32-6.55h0a4.92,4.92,0,0,1,6.55,2.34h0a4.9,4.9,0,0,1-2.33,6.55h0a4.88,4.88,0,0,1-4.58-.19h0A4.83,4.83,0,0,1,1612.52,1668.72Z" transform="translate(124.35 0.59)"/><path class="cls-7" d="M1558.48,1625.6a4.91,4.91,0,0,1,5.64-4.07h0a4.94,4.94,0,0,1,4.08,5.65h0a4.92,4.92,0,0,1-5.64,4.06h0a4.78,4.78,0,0,1-1.7-.6h0A4.91,4.91,0,0,1,1558.48,1625.6Z" transform="translate(124.35 0.59)"/><path class="cls-12" d="M1592.14,1643.84a4.93,4.93,0,0,1-1-6.89h0a4.94,4.94,0,0,1,6.89-1h0a4.91,4.91,0,0,1,1,6.89h0a4.91,4.91,0,0,1-6.39,1.32h0C1592.47,1644.07,1592.31,1644,1592.14,1643.84Z" transform="translate(124.35 0.59)"/><path class="cls-7" d="M1524.9,1750.33a4,4,0,0,1,5.28-2.11h0a4,4,0,0,1,2.11,5.29h0a4,4,0,0,1-5.28,2.11h0a3.74,3.74,0,0,1-.45-.22h0A4,4,0,0,1,1524.9,1750.33Z" transform="translate(124.35 0.59)"/><path class="cls-7" d="M1502.89,1737.47a4,4,0,0,1,.59-5.65h0a4,4,0,0,1,5.66.57h0a4,4,0,0,1-.57,5.66h0a4,4,0,0,1-4.57.37h0A4.13,4.13,0,0,1,1502.89,1737.47Z" transform="translate(124.35 0.59)"/><path class="cls-7" d="M1552.44,1756.82a4,4,0,0,1,3.69-4.35h0a4,4,0,0,1,4.34,3.7h0a4,4,0,0,1-3.69,4.34h0a4.12,4.12,0,0,1-2.34-.54h0A4.06,4.06,0,0,1,1552.44,1756.82Z" transform="translate(124.35 0.59)"/><path class="cls-7" d="M1490,1710.2a4,4,0,0,1,3.14-4.74h0a4,4,0,0,1,4.75,3.13h0a4,4,0,0,1-3.14,4.76h0a4,4,0,0,1-2.83-.46h0A4,4,0,0,1,1490,1710.2Z" transform="translate(124.35 0.59)"/><path class="cls-12" d="M1579.86,1749.75a4,4,0,0,1,1.27-5.56h0a4,4,0,0,1,5.54,1.26h0a4,4,0,0,1-1.26,5.55h0a4,4,0,0,1-4.17.08h0A4,4,0,0,1,1579.86,1749.75Z" transform="translate(124.35 0.59)"/><path class="cls-7" d="M1491.22,1680.06a4,4,0,0,1,5-2.74h0a4,4,0,0,1,2.75,5h0a4,4,0,0,1-5,2.73h0a4,4,0,0,1-.9-.38h0A4,4,0,0,1,1491.22,1680.06Z" transform="translate(124.35 0.59)"/><path class="cls-7" d="M1599.37,1725.24h0l0,0h0a.59.59,0,0,1,.06-.14h0a4,4,0,0,1,5.5-1.49h0a4,4,0,0,1,1.48,5.5h0l-.07.12h0l-.06.1h0a4,4,0,0,1-5.5,1.47h0A4,4,0,0,1,1599.37,1725.24Z" transform="translate(124.35 0.59)"/><path class="cls-7" d="M1506.43,1659.63a4,4,0,0,1-.11-5.7h0a4,4,0,0,1,5.7-.11h0a4,4,0,0,1,.12,5.7h0a4,4,0,0,1-4.93.69h0A3.83,3.83,0,0,1,1506.43,1659.63Z" transform="translate(124.35 0.59)"/><path class="cls-7" d="M1606.77,1699.76a4,4,0,0,1,4.18-3.86h0a4,4,0,0,1,3.87,4.17h0a4,4,0,0,1-4.18,3.87h0a4,4,0,0,1-1.87-.53h0A4.1,4.1,0,0,1,1606.77,1699.76Z" transform="translate(124.35 0.59)"/><path class="cls-12" d="M1529.27,1642.91a4,4,0,0,1,2.55-5.08h0a4,4,0,0,1,5.09,2.53h0a4.06,4.06,0,0,1-2.55,5.11h0a4.06,4.06,0,0,1-3.3-.35h0A4,4,0,0,1,1529.27,1642.91Z" transform="translate(124.35 0.59)"/><path class="cls-7" d="M1601.46,1674a4,4,0,0,1,1.92-5.37h0a4,4,0,0,1,5.36,1.91h0a4,4,0,0,1-1.9,5.37h0a4.08,4.08,0,0,1-3.76-.16h0A4,4,0,0,1,1601.46,1674Z" transform="translate(124.35 0.59)"/><path class="cls-7" d="M1557.27,1638.7a4,4,0,0,1,4.61-3.34h0a4,4,0,0,1,3.32,4.62h0a4,4,0,0,1-4.6,3.34h0a3.93,3.93,0,0,1-1.38-.5h0A4,4,0,0,1,1557.27,1638.7Z" transform="translate(124.35 0.59)"/><path class="cls-7" d="M1584.82,1653.62a4,4,0,0,1-.82-5.63h0a4,4,0,0,1,5.64-.81h0a4,4,0,0,1,.81,5.63h0a4,4,0,0,1-5.25,1.07h0A2,2,0,0,1,1584.82,1653.62Z" transform="translate(124.35 0.59)"/><path class="cls-7" d="M1530,1740.33a3.24,3.24,0,0,1,4.27-1.71h0a3.26,3.26,0,0,1,1.72,4.29h0a3.26,3.26,0,0,1-4.29,1.7h0a2.91,2.91,0,0,1-.35-.18h0A3.26,3.26,0,0,1,1530,1740.33Z" transform="translate(124.35 0.59)"/><path class="cls-7" d="M1512.18,1729.91h0a3.25,3.25,0,0,1,.47-4.58h0a3.26,3.26,0,0,1,4.59.46h0a3.28,3.28,0,0,1-.47,4.59h0a3.24,3.24,0,0,1-3.69.3h0A3,3,0,0,1,1512.18,1729.91Z" transform="translate(124.35 0.59)"/><path class="cls-7" d="M1552.32,1745.58a3.26,3.26,0,0,1,3-3.52h0a3.29,3.29,0,0,1,3.52,3h0a3.28,3.28,0,0,1-3,3.52h0a3.28,3.28,0,0,1-1.91-.44h0A3.22,3.22,0,0,1,1552.32,1745.58Z" transform="translate(124.35 0.59)"/><path class="cls-12" d="M1501.73,1707.81a3.25,3.25,0,0,1,2.53-3.84h0a3.27,3.27,0,0,1,3.86,2.54h0a3.28,3.28,0,0,1-2.54,3.86h0a3.35,3.35,0,0,1-2.28-.38h0A3.24,3.24,0,0,1,1501.73,1707.81Z" transform="translate(124.35 0.59)"/><path class="cls-7" d="M1574.53,1739.85a3.25,3.25,0,0,1,1-4.5h0a3.25,3.25,0,0,1,4.48,1h0a3.25,3.25,0,0,1-1,4.49h0a3.3,3.3,0,0,1-3.4.06h0A3.27,3.27,0,0,1,1574.53,1739.85Z" transform="translate(124.35 0.59)"/><path class="cls-7" d="M1502.72,1683.4a3.25,3.25,0,0,1,4-2.23h0a3.29,3.29,0,0,1,2.23,4h0a3.27,3.27,0,0,1-4.06,2.22h0a3.52,3.52,0,0,1-.71-.3h0A3.25,3.25,0,0,1,1502.72,1683.4Z" transform="translate(124.35 0.59)"/><path class="cls-12" d="M1590.35,1720l.05-.08h0l0-.08h0a3.24,3.24,0,0,1,4.44-1.19h0a3.27,3.27,0,0,1,1.21,4.46h0l-.06.07h0s0,.07,0,.1h0a3.27,3.27,0,0,1-4.46,1.18h0A3.25,3.25,0,0,1,1590.35,1720Z" transform="translate(124.35 0.59)"/><path class="cls-12" d="M1515,1666.84a3.25,3.25,0,0,1-.1-4.6h0a3.27,3.27,0,0,1,4.62-.11h0a3.28,3.28,0,0,1,.08,4.62h0a3.24,3.24,0,0,1-4,.57h0A3.13,3.13,0,0,1,1515,1666.84Z" transform="translate(124.35 0.59)"/><path class="cls-7" d="M1596.35,1699.37a3.23,3.23,0,0,1,3.37-3.13h0a3.26,3.26,0,0,1,3.14,3.38h0a3.28,3.28,0,0,1-3.38,3.14h0a3.25,3.25,0,0,1-1.52-.45h0A3.21,3.21,0,0,1,1596.35,1699.37Z" transform="translate(124.35 0.59)"/><path class="cls-7" d="M1533.55,1653.3a3.24,3.24,0,0,1,2-4.12h0a3.26,3.26,0,0,1,4.14,2.06h0a3.26,3.26,0,0,1-2.08,4.12h0a3.24,3.24,0,0,1-2.66-.27h0A3.17,3.17,0,0,1,1533.55,1653.3Z" transform="translate(124.35 0.59)"/><path class="cls-7" d="M1592,1678.47h0a3.29,3.29,0,0,1,1.56-4.35h0a3.26,3.26,0,0,1,4.33,1.55h0a3.24,3.24,0,0,1-1.53,4.34h0a3.23,3.23,0,0,1-3-.11h0A3.39,3.39,0,0,1,1592,1678.47Z" transform="translate(124.35 0.59)"/><path class="cls-7" d="M1556.22,1649.88a3.28,3.28,0,0,1,3.75-2.7h0a3.26,3.26,0,0,1,2.69,3.75h0a3.26,3.26,0,0,1-3.74,2.7h0a3.41,3.41,0,0,1-1.12-.4h0A3.29,3.29,0,0,1,1556.22,1649.88Z" transform="translate(124.35 0.59)"/><path class="cls-7" d="M1578.55,1662a3.29,3.29,0,0,1-.67-4.57h0a3.27,3.27,0,0,1,4.57-.65h0a3.25,3.25,0,0,1,.65,4.57h0a3.25,3.25,0,0,1-4.24.86h0A3.37,3.37,0,0,1,1578.55,1662Z" transform="translate(124.35 0.59)"/><path class="cls-12" d="M1604.68,78.19a8.34,8.34,0,1,1,11.79-.47A8.35,8.35,0,0,1,1604.68,78.19Z" transform="translate(124.35 0.59)"/><path class="cls-12" d="M1505.48,185.63a8.34,8.34,0,1,1,11.79-.47A8.35,8.35,0,0,1,1505.48,185.63Z" transform="translate(124.35 0.59)"/><path class="cls-7" d="M1472.42,221.44a8.34,8.34,0,1,1,11.78-.47A8.32,8.32,0,0,1,1472.42,221.44Z" transform="translate(124.35 0.59)"/><path class="cls-12" d="M1604.13,144a8.34,8.34,0,1,1,11.78-.47A8.34,8.34,0,0,1,1604.13,144Z" transform="translate(124.35 0.59)"/><path class="cls-12" d="M1571.06,179.83a8.34,8.34,0,1,1,11.79-.47A8.34,8.34,0,0,1,1571.06,179.83Z" transform="translate(124.35 0.59)"/><path class="cls-12" d="M1669.71,138.23a8.34,8.34,0,1,1,11.78-.47A8.34,8.34,0,0,1,1669.71,138.23Z" transform="translate(124.35 0.59)"/><path class="cls-7" d="M1636.65,174a8.34,8.34,0,1,1,11.78-.47A8.32,8.32,0,0,1,1636.65,174Z" transform="translate(124.35 0.59)"/><path class="cls-12" d="M1603.58,209.85a8.34,8.34,0,1,1,11.78-.47A8.34,8.34,0,0,1,1603.58,209.85Z" transform="translate(124.35 0.59)"/><path class="cls-12" d="M1570.51,245.67a8.34,8.34,0,1,1,11.78-.47A8.35,8.35,0,0,1,1570.51,245.67Z" transform="translate(124.35 0.59)"/><path class="cls-12" d="M1537.45,281.48a8.34,8.34,0,1,1,11.78-.47A8.32,8.32,0,0,1,1537.45,281.48Z" transform="translate(124.35 0.59)"/><path class="cls-7" d="M1702.23,168.25a8.34,8.34,0,1,1,11.78-.47A8.32,8.32,0,0,1,1702.23,168.25Z" transform="translate(124.35 0.59)"/><path class="cls-12" d="M1636.09,239.87a8.34,8.34,0,1,1,11.79-.47A8.34,8.34,0,0,1,1636.09,239.87Z" transform="translate(124.35 0.59)"/><path class="cls-7" d="M1603,275.69a8.34,8.34,0,1,1,11.78-.47A8.32,8.32,0,0,1,1603,275.69Z" transform="translate(124.35 0.59)"/><path class="cls-12" d="M342,1267.72a8.34,8.34,0,1,1,11.77-.68A8.33,8.33,0,0,1,342,1267.72Z" transform="translate(124.35 0.59)"/><path class="cls-7" d="M309.58,1304.15a8.34,8.34,0,1,1,11.77-.69A8.34,8.34,0,0,1,309.58,1304.15Z" transform="translate(124.35 0.59)"/><path class="cls-12" d="M244.79,1377a8.34,8.34,0,1,1,11.78-.69A8.34,8.34,0,0,1,244.79,1377Z" transform="translate(124.35 0.59)"/><path class="cls-7" d="M212.4,1413.41a8.34,8.34,0,1,1,11.77-.68A8.34,8.34,0,0,1,212.4,1413.41Z" transform="translate(124.35 0.59)"/><path class="cls-12" d="M342.65,1333.56a8.34,8.34,0,1,1,11.77-.69A8.34,8.34,0,0,1,342.65,1333.56Z" transform="translate(124.35 0.59)"/><path class="cls-12" d="M310.26,1370a8.34,8.34,0,1,1,11.77-.69A8.34,8.34,0,0,1,310.26,1370Z" transform="translate(124.35 0.59)"/><path class="cls-7" d="M277.86,1406.4a8.34,8.34,0,1,1,11.77-.69A8.34,8.34,0,0,1,277.86,1406.4Z" transform="translate(124.35 0.59)"/><path class="cls-7" d="M375.72,1363a8.34,8.34,0,1,1,11.77-.69A8.34,8.34,0,0,1,375.72,1363Z" transform="translate(124.35 0.59)"/><path class="cls-12" d="M343.32,1399.39a8.34,8.34,0,1,1,11.77-.69A8.34,8.34,0,0,1,343.32,1399.39Z" transform="translate(124.35 0.59)"/><path class="cls-12" d="M310.93,1435.81a8.34,8.34,0,1,1,11.77-.69A8.34,8.34,0,0,1,310.93,1435.81Z" transform="translate(124.35 0.59)"/><path class="cls-12" d="M278.54,1472.23a8.34,8.34,0,1,1,11.77-.68A8.34,8.34,0,0,1,278.54,1472.23Z" transform="translate(124.35 0.59)"/><path class="cls-7" d="M441.18,1356a8.34,8.34,0,1,1,11.77-.68A8.34,8.34,0,0,1,441.18,1356Z" transform="translate(124.35 0.59)"/><path class="cls-12" d="M376.39,1428.8a8.34,8.34,0,1,1,11.77-.69A8.34,8.34,0,0,1,376.39,1428.8Z" transform="translate(124.35 0.59)"/><path class="cls-7" d="M344,1465.22a8.34,8.34,0,1,1,11.77-.69A8.34,8.34,0,0,1,344,1465.22Z" transform="translate(124.35 0.59)"/><circle class="cls-13" cx="1447.1" cy="538.58" r="33.21"/><path class="cls-7" d="M467.42,1880.8a43.43,43.43,0,1,1,43.43,43.43A43.47,43.47,0,0,1,467.42,1880.8Zm66.42,0a23,23,0,1,0-23,23A23,23,0,0,0,533.84,1880.8Z" transform="translate(124.35 0.59)"/><path class="cls-8" d="M514.68,1833.55A43.43,43.43,0,1,1,558.1,1877,43.47,43.47,0,0,1,514.68,1833.55Zm66.42,0a23,23,0,1,0-23,23A23,23,0,0,0,581.1,1833.55Z" transform="translate(124.35 0.59)"/><circle class="cls-14" cx="1390.9" cy="1785.6" r="20.86"/><path class="cls-15" d="M891.89,432.83a11.92,11.92,0,1,1,11.92-11.92A11.92,11.92,0,0,1,891.89,432.83Z" transform="translate(124.35 0.59)"/><path class="cls-12" d="M884,440.71a11.92,11.92,0,1,1,11.92-11.92A11.93,11.93,0,0,1,884,440.71Z" transform="translate(124.35 0.59)"/><path class="cls-12" d="M828.86,1788.61a35,35,0,0,1-49.81,0l49.81-50.29A35.8,35.8,0,0,1,828.86,1788.61Z" transform="translate(124.35 0.59)"/><path class="cls-6" d="M805.55,1697.66a35,35,0,0,1,49.8,0l-49.81,50.29A35.79,35.79,0,0,1,805.55,1697.66Z" transform="translate(124.35 0.59)"/><line class="cls-2" x1="1595.02" y1="4222.67" x2="1610.18" y2="4207.51"/><line class="cls-2" x1="1543.01" y1="4274.69" x2="1570.86" y2="4246.83"/><line class="cls-2" x1="1546.37" y1="4227.48" x2="1651.26" y2="4122.59"/><line class="cls-2" x1="1492.89" y1="4280.97" x2="1514.16" y2="4259.7"/><line class="cls-3" x1="1577.92" y1="4152.1" x2="1670.22" y2="4059.8"/><line class="cls-3" x1="1438.66" y1="4291.36" x2="1537.07" y2="4192.95"/><line class="cls-2" x1="1471.98" y1="4214.2" x2="1634.89" y2="4051.29"/><line class="cls-2" x1="1404.62" y1="4281.56" x2="1439.1" y2="4247.08"/><line class="cls-2" x1="1562.64" y1="4079.7" x2="1601.8" y2="4040.54"/><line class="cls-2" x1="1321.76" y1="4320.59" x2="1521.46" y2="4120.88"/><line class="cls-3" x1="1438.1" y1="4160.4" x2="1633.2" y2="3965.31"/><line class="cls-3" x1="1351.93" y1="4246.57" x2="1397.26" y2="4201.25"/><line class="cls-2" x1="1432.13" y1="4122.54" x2="1558.16" y2="3996.5"/><line class="cls-2" x1="1303.46" y1="4251.2" x2="1396.59" y2="4158.07"/><line class="cls-3" x1="1492.24" y1="4018.59" x2="1558.07" y2="3952.76"/><line class="cls-3" x1="1316.53" y1="4194.29" x2="1444.41" y2="4066.41"/><line class="cls-2" x1="1384.64" y1="4082.35" x2="1473.56" y2="3993.43"/><line class="cls-2" x1="1283.25" y1="4183.74" x2="1349.76" y2="4117.23"/><line class="cls-3" x1="1419.84" y1="4003.31" x2="1454.43" y2="3968.72"/><line class="cls-3" x1="1292.63" y1="4130.52" x2="1380.32" y2="4042.83"/><line class="cls-2" x1="1358.03" y1="4021.29" x2="1379.27" y2="4000.04"/><line class="cls-2" x1="1320.7" y1="4058.61" x2="1335.36" y2="4043.95"/><line class="cls-4" x1="733.58" y1="2442.47" x2="744.14" y2="2431.91"/><line class="cls-4" x1="697.32" y1="2478.72" x2="716.74" y2="2459.31"/><line class="cls-4" x1="699.67" y1="2445.82" x2="772.78" y2="2372.71"/><line class="cls-4" x1="662.39" y1="2483.1" x2="677.21" y2="2468.28"/><line class="cls-5" x1="721.66" y1="2393.28" x2="785.99" y2="2328.95"/><line class="cls-5" x1="624.59" y1="2490.34" x2="693.19" y2="2421.75"/><line class="cls-4" x1="647.82" y1="2436.57" x2="761.36" y2="2323.02"/><line class="cls-4" x1="600.87" y1="2483.52" x2="624.9" y2="2459.48"/><line class="cls-4" x1="711.01" y1="2342.82" x2="738.3" y2="2315.53"/><line class="cls-4" x1="543.11" y1="2510.71" x2="682.31" y2="2371.52"/><line class="cls-5" x1="624.21" y1="2399.07" x2="760.18" y2="2263.09"/><line class="cls-5" x1="564.14" y1="2459.13" x2="595.73" y2="2427.54"/><line class="cls-4" x1="620.04" y1="2372.68" x2="707.88" y2="2284.83"/><line class="cls-4" x1="530.36" y1="2462.36" x2="595.27" y2="2397.45"/><line class="cls-5" x1="661.94" y1="2300.23" x2="707.82" y2="2254.34"/><line class="cls-5" x1="539.47" y1="2422.69" x2="628.6" y2="2333.56"/><line class="cls-4" x1="586.94" y1="2344.67" x2="648.92" y2="2282.69"/><line class="cls-4" x1="516.28" y1="2415.33" x2="562.63" y2="2368.97"/><line class="cls-5" x1="611.48" y1="2289.58" x2="635.59" y2="2265.47"/><line class="cls-5" x1="522.81" y1="2378.24" x2="583.93" y2="2317.12"/><line class="cls-4" x1="568.39" y1="2302.11" x2="583.2" y2="2287.3"/><line class="cls-4" x1="542.37" y1="2328.12" x2="552.59" y2="2317.91"/><rect class="cls-6" x="533.1" y="3153.15" width="162.08" height="162.08" rx="1.72" transform="translate(-1982.68 1382.12) rotate(-45)"/><circle class="cls-7" cx="591.3" cy="3232.54" r="2.54"/><path class="cls-7" d="M496.85,3202.05a2.54,2.54,0,1,1-3.59,0A2.54,2.54,0,0,1,496.85,3202.05Z" transform="translate(124.35 0.59)"/><path class="cls-7" d="M525,3173.94a2.54,2.54,0,1,1-3.59,0A2.54,2.54,0,0,1,525,3173.94Z" transform="translate(124.35 0.59)"/><path class="cls-7" d="M553.07,3145.83a2.54,2.54,0,1,1-3.59,0A2.54,2.54,0,0,1,553.07,3145.83Z" transform="translate(124.35 0.59)"/><circle class="cls-7" cx="703.74" cy="3120.1" r="2.54"/><path class="cls-7" d="M493.86,3255.29a2.53,2.53,0,1,1-3.59,0A2.53,2.53,0,0,1,493.86,3255.29Z" transform="translate(124.35 0.59)"/><circle class="cls-7" cx="644.53" cy="3229.55" r="2.54"/><circle class="cls-7" cx="672.64" cy="3201.44" r="2.54"/><circle class="cls-7" cx="700.75" cy="3173.33" r="2.54"/><circle class="cls-7" cx="728.86" cy="3145.22" r="2.54"/><path class="cls-7" d="M519,3280.41a2.53,2.53,0,1,1-3.59,0A2.53,2.53,0,0,1,519,3280.41Z" transform="translate(124.35 0.59)"/><circle class="cls-7" cx="669.65" cy="3254.67" r="2.54"/><circle class="cls-7" cx="697.76" cy="3226.56" r="2.54"/><circle class="cls-7" cx="725.87" cy="3198.45" r="2.54"/><path class="cls-7" d="M631.42,3168a2.53,2.53,0,1,1-3.58,0A2.52,2.52,0,0,1,631.42,3168Z" transform="translate(124.35 0.59)"/><path class="cls-7" d="M544.1,3305.53a2.54,2.54,0,1,1-3.59,0A2.54,2.54,0,0,1,544.1,3305.53Z" transform="translate(124.35 0.59)"/><path class="cls-7" d="M572.21,3277.42a2.53,2.53,0,1,1-3.59,0A2.53,2.53,0,0,1,572.21,3277.42Z" transform="translate(124.35 0.59)"/><circle class="cls-7" cx="722.88" cy="3251.68" r="2.54"/><path class="cls-7" d="M628.43,3221.19a2.53,2.53,0,1,1-3.58,0A2.54,2.54,0,0,1,628.43,3221.19Z" transform="translate(124.35 0.59)"/><path class="cls-7" d="M656.55,3193.08a2.54,2.54,0,1,1-3.59,0A2.54,2.54,0,0,1,656.55,3193.08Z" transform="translate(124.35 0.59)"/><path class="cls-7" d="M569.22,3330.65a2.54,2.54,0,1,1-3.59,0A2.54,2.54,0,0,1,569.22,3330.65Z" transform="translate(124.35 0.59)"/><circle class="cls-7" cx="719.89" cy="3304.92" r="2.54"/><circle class="cls-7" cx="748" cy="3276.8" r="2.54"/><circle class="cls-7" cx="776.11" cy="3248.69" r="2.54"/><path class="cls-7" d="M681.67,3218.2a2.54,2.54,0,1,1-3.59,0A2.54,2.54,0,0,1,681.67,3218.2Z" transform="translate(124.35 0.59)"/><path class="cls-7" d="M594.34,3355.77a2.54,2.54,0,1,1-3.59,0A2.54,2.54,0,0,1,594.34,3355.77Z" transform="translate(124.35 0.59)"/><circle class="cls-7" cx="745.01" cy="3330.04" r="2.54"/><circle class="cls-7" cx="773.12" cy="3301.93" r="2.54"/><circle class="cls-7" cx="801.23" cy="3273.81" r="2.54"/><path class="cls-7" d="M706.79,3243.32a2.54,2.54,0,1,1-3.59,0A2.54,2.54,0,0,1,706.79,3243.32Z" transform="translate(124.35 0.59)"/><rect class="cls-8" x="1226.53" y="2951.57" width="138.61" height="138.61" rx="1.47" transform="translate(4441.06 1725.62) rotate(90)"/><path class="cls-7" d="M1388.33,2939.64a2.17,2.17,0,1,1,2.17-2.17A2.17,2.17,0,0,1,1388.33,2939.64Z" transform="translate(124.35 0.59)"/><path class="cls-7" d="M1388.33,2973.63a2.17,2.17,0,1,1,2.17-2.17A2.17,2.17,0,0,1,1388.33,2973.63Z" transform="translate(124.35 0.59)"/><path class="cls-7" d="M1388.33,3007.63a2.17,2.17,0,1,1,2.17-2.17A2.17,2.17,0,0,1,1388.33,3007.63Z" transform="translate(124.35 0.59)"/><path class="cls-7" d="M1388.33,3041.63a2.17,2.17,0,1,1,2.17-2.17A2.17,2.17,0,0,1,1388.33,3041.63Z" transform="translate(124.35 0.59)"/><path class="cls-7" d="M1388.33,3075.63a2.17,2.17,0,1,1,2.17-2.17A2.17,2.17,0,0,1,1388.33,3075.63Z" transform="translate(124.35 0.59)"/><path class="cls-7" d="M1357.94,2939.64a2.17,2.17,0,1,1,2.17-2.17A2.18,2.18,0,0,1,1357.94,2939.64Z" transform="translate(124.35 0.59)"/><path class="cls-7" d="M1357.94,2973.63a2.17,2.17,0,1,1,2.17-2.17A2.17,2.17,0,0,1,1357.94,2973.63Z" transform="translate(124.35 0.59)"/><path class="cls-7" d="M1357.94,3007.63a2.17,2.17,0,1,1,2.17-2.17A2.17,2.17,0,0,1,1357.94,3007.63Z" transform="translate(124.35 0.59)"/><path class="cls-7" d="M1357.94,3041.63a2.17,2.17,0,1,1,2.17-2.17A2.17,2.17,0,0,1,1357.94,3041.63Z" transform="translate(124.35 0.59)"/><path class="cls-7" d="M1357.94,3075.63a2.17,2.17,0,1,1,2.17-2.17A2.17,2.17,0,0,1,1357.94,3075.63Z" transform="translate(124.35 0.59)"/><path class="cls-7" d="M1327.56,2939.64a2.17,2.17,0,1,1,2.17-2.17A2.17,2.17,0,0,1,1327.56,2939.64Z" transform="translate(124.35 0.59)"/><circle class="cls-7" cx="1451.92" cy="2972.05" r="2.17"/><circle class="cls-7" cx="1451.92" cy="3006.05" r="2.17"/><path class="cls-7" d="M1327.56,3041.63a2.17,2.17,0,1,1,2.17-2.17A2.17,2.17,0,0,1,1327.56,3041.63Z" transform="translate(124.35 0.59)"/><path class="cls-7" d="M1327.56,3075.63a2.17,2.17,0,1,1,2.17-2.17A2.17,2.17,0,0,1,1327.56,3075.63Z" transform="translate(124.35 0.59)"/><path class="cls-7" d="M1297.18,2939.64a2.17,2.17,0,1,1,2.17-2.17A2.17,2.17,0,0,1,1297.18,2939.64Z" transform="translate(124.35 0.59)"/><circle class="cls-7" cx="1421.53" cy="2972.05" r="2.17"/><circle class="cls-7" cx="1421.53" cy="3006.05" r="2.17"/><path class="cls-7" d="M1297.18,3041.63a2.17,2.17,0,1,1,2.17-2.17A2.17,2.17,0,0,1,1297.18,3041.63Z" transform="translate(124.35 0.59)"/><path class="cls-7" d="M1297.18,3075.63a2.17,2.17,0,1,1,2.17-2.17A2.17,2.17,0,0,1,1297.18,3075.63Z" transform="translate(124.35 0.59)"/><path class="cls-7" d="M1266.8,2939.64a2.17,2.17,0,1,1,2.17-2.17A2.17,2.17,0,0,1,1266.8,2939.64Z" transform="translate(124.35 0.59)"/><circle class="cls-7" cx="1391.15" cy="2972.05" r="2.17"/><circle class="cls-7" cx="1391.15" cy="3006.05" r="2.17"/><path class="cls-7" d="M1266.8,3041.63a2.17,2.17,0,1,1,2.17-2.17A2.17,2.17,0,0,1,1266.8,3041.63Z" transform="translate(124.35 0.59)"/><path class="cls-7" d="M1266.8,3075.63a2.17,2.17,0,1,1,2.17-2.17A2.17,2.17,0,0,1,1266.8,3075.63Z" transform="translate(124.35 0.59)"/><path class="cls-7" d="M1236.42,2939.64a2.17,2.17,0,1,1,2.17-2.17A2.17,2.17,0,0,1,1236.42,2939.64Z" transform="translate(124.35 0.59)"/><path class="cls-7" d="M1236.42,2973.63a2.17,2.17,0,1,1,2.17-2.17A2.17,2.17,0,0,1,1236.42,2973.63Z" transform="translate(124.35 0.59)"/><path class="cls-7" d="M1236.42,3007.63a2.17,2.17,0,1,1,2.17-2.17A2.17,2.17,0,0,1,1236.42,3007.63Z" transform="translate(124.35 0.59)"/><path class="cls-7" d="M1236.42,3041.63a2.17,2.17,0,1,1,2.17-2.17A2.17,2.17,0,0,1,1236.42,3041.63Z" transform="translate(124.35 0.59)"/><path class="cls-7" d="M1236.42,3075.63a2.17,2.17,0,1,1,2.17-2.17A2.17,2.17,0,0,1,1236.42,3075.63Z" transform="translate(124.35 0.59)"/><polyline class="cls-9" points="874.92 3867.95 926.03 3795.48 874.97 3722.97"/><polyline class="cls-9" points="874.83 4157.88 925.94 4085.42 874.87 4012.92 925.99 3940.45"/><line class="cls-9" x1="874.78" y1="4302.84" x2="925.89" y2="4230.37"/><polyline class="cls-8" points="880.01 3940.44 828.94 3867.94 880.05 3795.46 828.99 3722.95"/><polyline class="cls-8" points="828.8 4302.82 879.91 4230.36 828.85 4157.87 879.96 4085.41 828.89 4012.91"/><rect class="cls-10" x="1146.5" y="3813.12" width="91.89" height="91.89" rx="0.98" transform="translate(-568.78 7431.61) rotate(-135)"/><rect class="cls-7" x="1166.18" y="3832.8" width="52.54" height="52.54" rx="2.99" transform="translate(-568.78 7431.61) rotate(-135)"/><rect class="cls-8" x="706.52" y="3341.01" width="71.13" height="71.13" rx="0.76" transform="translate(-996.43 6289.5) rotate(-135)"/><rect class="cls-9" x="721.75" y="3356.24" width="40.67" height="40.67" rx="2.31" transform="translate(-996.44 6289.49) rotate(-135)"/><line class="cls-9" x1="1338.91" y1="3510.55" x2="1815.77" y2="3033.69"/><line class="cls-9" x1="800.79" y1="3028.58" x2="903.82" y2="2925.55"/><line class="cls-9" x1="690.94" y1="2676.06" x2="746.72" y2="2620.29"/><line class="cls-8" x1="413.78" y1="3309.15" x2="515.53" y2="3207.4"/><line class="cls-8" x1="1503.66" y1="3828.93" x2="1559.44" y2="3773.16"/><line class="cls-8" x1="848.21" y1="3547.74" x2="988.08" y2="3407.87"/><line class="cls-8" x1="1551.78" y1="3376.02" x2="2028.65" y2="2899.15"/><line class="cls-8" x1="1618.2" y1="2540.7" x2="2095.06" y2="2063.84"/><line class="cls-9" x1="1285.26" y1="2496.42" x2="1762.13" y2="2019.56"/><line class="cls-8" x1="1309.53" y1="2418.51" x2="1786.4" y2="1941.65"/><line class="cls-8" x1="134.95" y1="4109.99" x2="611.81" y2="3633.13"/><line class="cls-9" x1="73.64" y1="4253.04" x2="550.51" y2="3776.18"/><polygon class="cls-7" points="1045.58 3210.73 1091.64 3256.79 1045.58 3302.85 1081.71 3338.98 1127.77 3292.92 1173.83 3338.98 1209.95 3302.85 1163.89 3256.79 1209.95 3210.73 1173.83 3174.61 1127.77 3220.67 1081.71 3174.61 1045.58 3210.73"/><polygon class="cls-8" points="1010.67 3216.69 1056.73 3262.75 1010.67 3308.81 1046.8 3344.94 1092.86 3298.88 1138.92 3344.94 1175.04 3308.81 1128.98 3262.75 1175.04 3216.69 1138.92 3180.57 1092.86 3226.63 1046.8 3180.57 1010.67 3216.69"/><path class="cls-11" d="M1671,3918.44a45.34,45.34,0,1,1-64.12-64.13" transform="translate(124.35 0.59)"/><path class="cls-9" d="M1670.35,3919a45.34,45.34,0,0,1-64.12-64.13" transform="translate(124.35 0.59)"/><path class="cls-12" d="M1047.58,4082.75a4.62,4.62,0,0,1-5.14-4h0a4.62,4.62,0,0,1,4-5.14h0a4.62,4.62,0,0,1,5.14,4h0c0,.2,0,.39,0,.57h0A4.62,4.62,0,0,1,1047.58,4082.75Zm-.09,29.19a4.61,4.61,0,0,1-6,2.67h0a4.6,4.6,0,0,1-2.69-5.93h0a4.63,4.63,0,0,1,6-2.69h0a4.64,4.64,0,0,1,3,4.32h0A4.68,4.68,0,0,1,1047.49,4111.94Zm-9.33-60.21a4.64,4.64,0,0,1-6.43-1.17h0a4.62,4.62,0,0,1,1.17-6.41h0a4.61,4.61,0,0,1,6.42,1.15h0a4.61,4.61,0,0,1,.82,2.63h0A4.61,4.61,0,0,1,1038.16,4051.73Zm-10.29,88.66a4.62,4.62,0,0,1-6.52-.37h0a4.61,4.61,0,0,1,.39-6.51h0a4.62,4.62,0,0,1,6.52.38h0a4.59,4.59,0,0,1,1.16,3.06h0A4.54,4.54,0,0,1,1027.87,4140.39Zm-12.48-111.77a4.63,4.63,0,0,1-6.24,1.94h0a4.62,4.62,0,0,1-1.94-6.23h0a4.61,4.61,0,0,1,6.23-1.93h0a4.6,4.6,0,0,1,2.47,4.09h0A4.62,4.62,0,0,1,1015.39,4028.62ZM997.3,4156.53a4.61,4.61,0,0,1-5.58-3.38h0a4.61,4.61,0,0,1,3.36-5.58h0a4.62,4.62,0,0,1,5.58,3.37h0a4.3,4.3,0,0,1,.14,1.12h0A4.63,4.63,0,0,1,997.3,4156.53Zm-17.42-133.16h-.25a4.6,4.6,0,0,1-4.62-4.6h0a4.6,4.6,0,0,1,4.58-4.63h.29a4.6,4.6,0,0,1,4.61,4.61h0A4.61,4.61,0,0,1,979.88,4023.37ZM968.3,4153.2a4.61,4.61,0,0,1-5.56,3.4h0a4.64,4.64,0,0,1-3.4-5.59h0a4.62,4.62,0,0,1,5.58-3.38h0a4.61,4.61,0,0,1,3.52,4.48h0A4.08,4.08,0,0,1,968.3,4153.2Zm-17.92-122.52a4.6,4.6,0,0,1-6.22-1.92h0a4.59,4.59,0,0,1,1.9-6.22h0a4.61,4.61,0,0,1,6.24,1.9h0a4.54,4.54,0,0,1,.54,2.15h0A4.61,4.61,0,0,1,950.38,4030.68Zm-11.77,109.5a4.62,4.62,0,0,1-6.51.4h0a4.61,4.61,0,0,1-.41-6.51h0a4.64,4.64,0,0,1,6.52-.41h0a4.62,4.62,0,0,1,1.55,3.47h0A4.68,4.68,0,0,1,938.61,4140.18Zm-10.73-89.42a4.61,4.61,0,0,1-6.41,1.2h0a4.62,4.62,0,0,1-1.19-6.41h0a4.6,4.6,0,0,1,6.41-1.2h0a4.58,4.58,0,0,1,2,3.81h0A4.58,4.58,0,0,1,927.88,4050.76Zm-9.55,64.1a4.61,4.61,0,0,1-6-2.66h0a4.63,4.63,0,0,1,2.66-6h0a4.61,4.61,0,0,1,6,2.66h0a4.6,4.6,0,0,1,.31,1.66h0A4.61,4.61,0,0,1,918.33,4114.86Zm-1-35.88a4.62,4.62,0,0,1-5.12,4h0a4.62,4.62,0,0,1-4-5.11h0a4.62,4.62,0,0,1,5.12-4h0a4.61,4.61,0,0,1,4.08,4.57h0C917.32,4078.61,917.3,4078.8,917.29,4079Z" transform="translate(124.35 0.59)"/><path class="cls-12" d="M1035.27,4083.41a3.76,3.76,0,0,1-4.2-3.29h0a3.78,3.78,0,0,1,3.29-4.2h0a3.78,3.78,0,0,1,4.2,3.29h0a2.42,2.42,0,0,1,0,.46h0A3.77,3.77,0,0,1,1035.27,4083.41Zm-.08,23.89a3.75,3.75,0,0,1-4.86,2.18h0a3.76,3.76,0,0,1-2.2-4.86h0a3.78,3.78,0,0,1,4.86-2.2h0a3.8,3.8,0,0,1,2.44,3.54h0A3.72,3.72,0,0,1,1035.19,4107.3Zm-7.63-49.27a3.79,3.79,0,0,1-5.25-1h0a3.78,3.78,0,0,1,1-5.26h0a3.8,3.8,0,0,1,5.26.95h0a3.9,3.9,0,0,1,.66,2.15h0A3.8,3.8,0,0,1,1027.56,4058Zm-8.42,72.56a3.76,3.76,0,0,1-5.32-.33h0a3.78,3.78,0,0,1,.31-5.32h0a3.79,3.79,0,0,1,5.33.31h0a3.83,3.83,0,0,1,1,2.51h0A3.78,3.78,0,0,1,1019.14,4130.59Zm-10.21-91.47a3.77,3.77,0,0,1-5.1,1.59h0a3.77,3.77,0,0,1-1.58-5.09h0a3.77,3.77,0,0,1,5.08-1.59h0a3.76,3.76,0,0,1,2,3.34h0A3.63,3.63,0,0,1,1008.93,4039.12Zm-14.8,104.65a3.76,3.76,0,0,1-4.57-2.75h0a3.78,3.78,0,0,1,2.76-4.58h0a3.78,3.78,0,0,1,4.56,2.77h0a3.54,3.54,0,0,1,.11.91h0A3.76,3.76,0,0,1,994.13,4143.77Zm-14.25-108.94h-.2a3.79,3.79,0,0,1-3.8-3.76h0a3.77,3.77,0,0,1,3.77-3.78h.23a3.76,3.76,0,0,1,3.78,3.76h0A3.78,3.78,0,0,1,979.88,4034.83Zm-9.47,106.22a3.76,3.76,0,0,1-4.56,2.77h0v0h0a3.79,3.79,0,0,1-2.77-4.57h0a3.78,3.78,0,0,1,4.56-2.78h0a3.78,3.78,0,0,1,2.88,3.67h0A3.39,3.39,0,0,1,970.41,4141.05Zm-14.66-100.24a3.79,3.79,0,0,1-5.11-1.56h0a3.79,3.79,0,0,1,1.57-5.11h0a3.76,3.76,0,0,1,5.1,1.57h0a3.72,3.72,0,0,1,.45,1.77h0A3.82,3.82,0,0,1,955.75,4040.81Zm-9.64,89.59a3.75,3.75,0,0,1-5.32.32h0a3.75,3.75,0,0,1-.34-5.31h0a3.79,3.79,0,0,1,5.34-.34h0a3.81,3.81,0,0,1,1.27,2.84h0A3.79,3.79,0,0,1,946.11,4130.4Zm-8.76-73.15a3.78,3.78,0,0,1-5.26,1h0a3.76,3.76,0,0,1-1-5.24h0a3.77,3.77,0,0,1,5.24-1h0a3.82,3.82,0,0,1,1.65,3.12h0A3.87,3.87,0,0,1,937.35,4057.25Zm-7.83,52.43a3.77,3.77,0,0,1-4.87-2.17h0a3.77,3.77,0,0,1,2.18-4.87h0a3.77,3.77,0,0,1,4.87,2.17h0a3.75,3.75,0,0,1,.25,1.35h0A3.76,3.76,0,0,1,929.52,4109.68Zm-.86-29.36a3.77,3.77,0,0,1-4.18,3.32h0a3.78,3.78,0,0,1-3.31-4.2h0a3.78,3.78,0,0,1,4.19-3.3h0a3.78,3.78,0,0,1,3.33,3.75h0A2.08,2.08,0,0,1,928.66,4080.32Z" transform="translate(124.35 0.59)"/><path class="cls-12" d="M1024.75,4084a3.06,3.06,0,0,1-3.4-2.66h0a3.06,3.06,0,0,1,2.68-3.41h0a3.07,3.07,0,0,1,3.4,2.67h0c0,.12,0,.25,0,.37h0A3.06,3.06,0,0,1,1024.75,4084Zm-.06,19.35h0a3.05,3.05,0,0,1-3.94,1.77h0a3.05,3.05,0,0,1-1.78-3.94h0a3.08,3.08,0,0,1,3.94-1.78h0a3.05,3.05,0,0,1,2,2.86h0A2.92,2.92,0,0,1,1024.69,4103.33Zm-6.18-39.92a3.06,3.06,0,0,1-4.26-.77h0a3.08,3.08,0,0,1,.77-4.26h0a3.08,3.08,0,0,1,4.26.77h0a3.06,3.06,0,0,1,.54,1.75h0A3,3,0,0,1,1018.51,4063.41Zm-6.83,58.78a3,3,0,0,1-4.3-.24h0a3.07,3.07,0,0,1,.25-4.32h0a3.06,3.06,0,0,1,4.32.24h0a3.14,3.14,0,0,1,.76,2h0A3,3,0,0,1,1011.68,4122.19Zm-8.26-74.09a3.07,3.07,0,0,1-4.14,1.28h0a3.06,3.06,0,0,1-1.28-4.12h0a3.06,3.06,0,0,1,4.12-1.3h0a3.09,3.09,0,0,1,1.65,2.73h0A3.16,3.16,0,0,1,1003.42,4048.1Zm-12,84.78a3,3,0,0,1-3.7-2.23h0a3.09,3.09,0,0,1,2.23-3.71h0a3.06,3.06,0,0,1,3.7,2.25h0a2.6,2.6,0,0,1,.1.72h0A3.05,3.05,0,0,1,991.42,4132.88Zm-11.54-88.27h-.17a3,3,0,0,1-3.06-3h0a3.07,3.07,0,0,1,3.05-3.08h0l.09,0h0l.09,0h0a3.07,3.07,0,0,1,3.06,3.06h0A3.06,3.06,0,0,1,979.88,4044.61Zm-7.67,86.07a3.05,3.05,0,0,1-3.69,2.24h0a3.07,3.07,0,0,1-2.26-3.69h0A3.07,3.07,0,0,1,970,4127h0a3.05,3.05,0,0,1,2.33,3h0A3.08,3.08,0,0,1,972.21,4130.68Zm-11.88-81.23a3,3,0,0,1-4.12-1.26h0a3,3,0,0,1,1.26-4.13h0a3.06,3.06,0,0,1,4.13,1.26h0a3,3,0,0,1,.36,1.44h0A3,3,0,0,1,960.33,4049.45ZM952.52,4122a3,3,0,0,1-4.31.28h0a3,3,0,0,1-.27-4.32h0a3.07,3.07,0,0,1,4.32-.27h0a3.1,3.1,0,0,1,1,2.3h0A3,3,0,0,1,952.52,4122Zm-7.1-59.26h0a3.07,3.07,0,0,1-4.26.78h0a3.05,3.05,0,0,1-.79-4.24h0a3.06,3.06,0,0,1,4.25-.8h0A3,3,0,0,1,946,4061h0A3.2,3.2,0,0,1,945.42,4062.78Zm-6.34,42.49a3.07,3.07,0,0,1-4-1.77h0a3.06,3.06,0,0,1,1.77-3.95h0a3.06,3.06,0,0,1,4,1.77h0a2.92,2.92,0,0,1,.2,1.09h0A3.08,3.08,0,0,1,939.08,4105.27Zm-.69-23.8a3.07,3.07,0,0,1-3.4,2.69h0a3.06,3.06,0,0,1-2.67-3.39h0a3,3,0,0,1,3.4-2.68h0a3,3,0,0,1,2.69,3h0A2.06,2.06,0,0,1,938.39,4081.47Z" transform="translate(124.35 0.59)"/><path class="cls-12" d="M1284.41,3194a4.93,4.93,0,0,1-6.45,2.59h0a4.91,4.91,0,0,1-2.58-6.47h0a4.93,4.93,0,0,1,6.45-2.59h0c.19.1.37.18.54.28h0A4.93,4.93,0,0,1,1284.41,3194Z" transform="translate(124.35 0.59)"/><path class="cls-7" d="M1311.29,3209.73a4.91,4.91,0,0,1-.71,6.92h0a4.92,4.92,0,0,1-6.92-.69h0a4.94,4.94,0,0,1,.71-6.93h0a4.94,4.94,0,0,1,5.58-.44h0A5,5,0,0,1,1311.29,3209.73Z" transform="translate(124.35 0.59)"/><path class="cls-7" d="M1250.74,3186.11a5,5,0,0,1-4.52,5.3h0a4.93,4.93,0,0,1-5.29-4.51h0a4.93,4.93,0,0,1,4.51-5.31h0a5,5,0,0,1,2.86.65h0A4.93,4.93,0,0,1,1250.74,3186.11Z" transform="translate(124.35 0.59)"/><path class="cls-7" d="M1327.05,3243.07a4.92,4.92,0,0,1-3.83,5.81h0a4.93,4.93,0,0,1-5.81-3.84h0a4.93,4.93,0,0,1,3.84-5.81h0a4.81,4.81,0,0,1,3.45.56h0A4.87,4.87,0,0,1,1327.05,3243.07Z" transform="translate(124.35 0.59)"/><path class="cls-7" d="M1217.23,3194.74a4.93,4.93,0,0,1-1.55,6.8h0a4.92,4.92,0,0,1-6.78-1.55h0a4.92,4.92,0,0,1,1.54-6.78h0a4.9,4.9,0,0,1,5.1-.09h0A4.85,4.85,0,0,1,1217.23,3194.74Z" transform="translate(124.35 0.59)"/><path class="cls-12" d="M1325.57,3279.92a4.93,4.93,0,0,1-6.11,3.34h0a4.92,4.92,0,0,1-3.34-6.1h0a4.92,4.92,0,0,1,6.09-3.34h0a4.75,4.75,0,0,1,1.11.47h0A4.94,4.94,0,0,1,1325.57,3279.92Z" transform="translate(124.35 0.59)"/><path class="cls-12" d="M1193.37,3224.69l-.06.12h0l-.07.11h0a4.9,4.9,0,0,1-6.72,1.81h0a4.91,4.91,0,0,1-1.82-6.7h0l.09-.15h0l.07-.12h0a4.9,4.9,0,0,1,6.72-1.79h0A4.9,4.9,0,0,1,1193.37,3224.69Z" transform="translate(124.35 0.59)"/><path class="cls-7" d="M1307,3304.88a4.92,4.92,0,0,1,.16,7h0a4.94,4.94,0,0,1-7,.14h0a4.91,4.91,0,0,1-.13-6.95h0a4.9,4.9,0,0,1,6-.86h0A4.88,4.88,0,0,1,1307,3304.88Z" transform="translate(124.35 0.59)"/><path class="cls-12" d="M1184.33,3255.83a4.93,4.93,0,0,1-5.11,4.72h0a4.91,4.91,0,0,1-4.72-5.1h0a4.92,4.92,0,0,1,5.1-4.73h0a4.88,4.88,0,0,1,2.27.65h0A4.92,4.92,0,0,1,1184.33,3255.83Z" transform="translate(124.35 0.59)"/><path class="cls-7" d="M1279.06,3325.32a4.91,4.91,0,0,1-3.11,6.21h0a4.91,4.91,0,0,1-6.23-3.1h0a4.94,4.94,0,0,1,3.11-6.23h0a4.94,4.94,0,0,1,4,.42h0A5,5,0,0,1,1279.06,3325.32Z" transform="translate(124.35 0.59)"/><path class="cls-7" d="M1190.81,3287.34a4.92,4.92,0,0,1-2.33,6.56h0a4.93,4.93,0,0,1-6.55-2.34h0a4.92,4.92,0,0,1,2.33-6.56h0a4.91,4.91,0,0,1,4.58.2h0A4.93,4.93,0,0,1,1190.81,3287.34Z" transform="translate(124.35 0.59)"/><path class="cls-7" d="M1244.84,3330.47a4.91,4.91,0,0,1-5.64,4.07h0a4.94,4.94,0,0,1-4.08-5.65h0a4.93,4.93,0,0,1,5.64-4.07h0a4.79,4.79,0,0,1,1.7.61h0A4.91,4.91,0,0,1,1244.84,3330.47Z" transform="translate(124.35 0.59)"/><path class="cls-12" d="M1211.18,3312.23a4.93,4.93,0,0,1,1,6.89h0a4.94,4.94,0,0,1-6.89,1h0a4.9,4.9,0,0,1-1-6.88h0a4.91,4.91,0,0,1,6.39-1.32h0A5.39,5.39,0,0,1,1211.18,3312.23Z" transform="translate(124.35 0.59)"/><path class="cls-7" d="M1278.43,3205.73a4,4,0,0,1-5.29,2.12h0a4,4,0,0,1-2.11-5.29h0a4,4,0,0,1,5.29-2.11h0a3.61,3.61,0,0,1,.44.22h0A4,4,0,0,1,1278.43,3205.73Z" transform="translate(124.35 0.59)"/><path class="cls-7" d="M1300.43,3218.59a4,4,0,0,1-.59,5.66h0a4,4,0,0,1-5.66-.58h0a4,4,0,0,1,.57-5.66h0a4,4,0,0,1,4.57-.36h0A4,4,0,0,1,1300.43,3218.59Z" transform="translate(124.35 0.59)"/><path class="cls-7" d="M1250.89,3199.25a4,4,0,0,1-3.7,4.34h0a4,4,0,0,1-4.34-3.69h0a4,4,0,0,1,3.69-4.34h0a4.12,4.12,0,0,1,2.34.54h0A4.06,4.06,0,0,1,1250.89,3199.25Z" transform="translate(124.35 0.59)"/><path class="cls-7" d="M1313.32,3245.87a4,4,0,0,1-3.14,4.74h0a4,4,0,0,1-4.74-3.14h0a4,4,0,0,1,3.14-4.75h0a4,4,0,0,1,2.82.46h0A4,4,0,0,1,1313.32,3245.87Z" transform="translate(124.35 0.59)"/><path class="cls-12" d="M1223.46,3206.32a4,4,0,0,1-1.27,5.56h0a4,4,0,0,1-5.54-1.26h0a4,4,0,0,1,1.26-5.55h0a4,4,0,0,1,4.17-.08h0A4,4,0,0,1,1223.46,3206.32Z" transform="translate(124.35 0.59)"/><path class="cls-7" d="M1312.1,3276a4,4,0,0,1-5,2.74h0a4,4,0,0,1-2.75-5h0a4,4,0,0,1,5-2.73h0a3.91,3.91,0,0,1,.89.38h0A4,4,0,0,1,1312.1,3276Z" transform="translate(124.35 0.59)"/><path class="cls-7" d="M1204,3230.83h0l0,.06h0a.84.84,0,0,0-.06.14h0a4.05,4.05,0,0,1-5.51,1.49h0a4,4,0,0,1-1.48-5.5h0l.07-.12h0l.06-.1h0a4,4,0,0,1,5.5-1.47h0A4,4,0,0,1,1204,3230.83Z" transform="translate(124.35 0.59)"/><path class="cls-7" d="M1296.89,3296.44a4,4,0,0,1,.11,5.69h0a4,4,0,0,1-5.7.11h0a4,4,0,0,1-.12-5.7h0a4,4,0,0,1,4.93-.69h0A3.56,3.56,0,0,1,1296.89,3296.44Z" transform="translate(124.35 0.59)"/><path class="cls-7" d="M1196.55,3256.3a4,4,0,0,1-4.18,3.87h0a4,4,0,0,1-3.87-4.18h0a4,4,0,0,1,4.18-3.86h0a4,4,0,0,1,1.87.53h0A4.09,4.09,0,0,1,1196.55,3256.3Z" transform="translate(124.35 0.59)"/><path class="cls-12" d="M1274.05,3313.16a4,4,0,0,1-2.55,5.08h0a4,4,0,0,1-5.08-2.53h0a4,4,0,0,1,2.54-5.11h0a4.09,4.09,0,0,1,3.31.35h0A4.07,4.07,0,0,1,1274.05,3313.16Z" transform="translate(124.35 0.59)"/><path class="cls-7" d="M1201.86,3282.08a4,4,0,0,1-1.92,5.37h0a4,4,0,0,1-5.36-1.91h0a4,4,0,0,1,1.9-5.37h0a4.05,4.05,0,0,1,3.76.16h0A4,4,0,0,1,1201.86,3282.08Z" transform="translate(124.35 0.59)"/><path class="cls-7" d="M1246.05,3317.37a4,4,0,0,1-4.6,3.34h0a4,4,0,0,1-3.33-4.63h0a4,4,0,0,1,4.61-3.33h0a4.07,4.07,0,0,1,1.38.5h0A4,4,0,0,1,1246.05,3317.37Z" transform="translate(124.35 0.59)"/><path class="cls-7" d="M1218.5,3302.45a4,4,0,0,1,.83,5.63h0a4,4,0,0,1-5.65.81h0a4,4,0,0,1-.81-5.63h0a4,4,0,0,1,5.25-1.07h0A1.6,1.6,0,0,1,1218.5,3302.45Z" transform="translate(124.35 0.59)"/><path class="cls-7" d="M1273.32,3215.74a3.25,3.25,0,0,1-4.27,1.71h0a3.27,3.27,0,0,1-1.72-4.29h0a3.28,3.28,0,0,1,4.29-1.71h0l.35.19h0A3.26,3.26,0,0,1,1273.32,3215.74Z" transform="translate(124.35 0.59)"/><path class="cls-7" d="M1291.15,3226.16h0a3.26,3.26,0,0,1-.48,4.58h0a3.24,3.24,0,0,1-4.58-.46h0a3.27,3.27,0,0,1,.46-4.59h0a3.25,3.25,0,0,1,3.7-.3h0A3.29,3.29,0,0,1,1291.15,3226.16Z" transform="translate(124.35 0.59)"/><path class="cls-7" d="M1251,3210.49a3.26,3.26,0,0,1-3,3.52h0a3.29,3.29,0,0,1-3.51-3h0a3.28,3.28,0,0,1,3-3.52h0a3.28,3.28,0,0,1,1.91.44h0A3.22,3.22,0,0,1,1251,3210.49Z" transform="translate(124.35 0.59)"/><path class="cls-12" d="M1301.59,3248.26a3.25,3.25,0,0,1-2.53,3.84h0a3.27,3.27,0,0,1-3.86-2.54h0a3.27,3.27,0,0,1,2.54-3.86h0a3.34,3.34,0,0,1,2.29.38h0A3.2,3.2,0,0,1,1301.59,3248.26Z" transform="translate(124.35 0.59)"/><path class="cls-7" d="M1228.79,3216.22a3.25,3.25,0,0,1-1,4.5h0a3.27,3.27,0,0,1-4.49-1h0a3.25,3.25,0,0,1,1-4.49h0a3.26,3.26,0,0,1,3.39-.06h0A3.27,3.27,0,0,1,1228.79,3216.22Z" transform="translate(124.35 0.59)"/><path class="cls-7" d="M1300.6,3272.67a3.25,3.25,0,0,1-4,2.23h0a3.3,3.3,0,0,1-2.23-4h0a3.27,3.27,0,0,1,4.06-2.22h0a3,3,0,0,1,.71.3h0A3.23,3.23,0,0,1,1300.6,3272.67Z" transform="translate(124.35 0.59)"/><path class="cls-12" d="M1213,3236.07l0,.08h0l0,.07h0a3.24,3.24,0,0,1-4.44,1.2h0a3.27,3.27,0,0,1-1.21-4.46h0l.06-.07h0s0-.07,0-.1h0a3.27,3.27,0,0,1,4.46-1.18h0A3.25,3.25,0,0,1,1213,3236.07Z" transform="translate(124.35 0.59)"/><path class="cls-12" d="M1288.28,3289.22a3.26,3.26,0,0,1,.1,4.61h0a3.27,3.27,0,0,1-4.61.11h0a3.27,3.27,0,0,1-.09-4.62h0a3.26,3.26,0,0,1,4-.57h0A3.82,3.82,0,0,1,1288.28,3289.22Z" transform="translate(124.35 0.59)"/><path class="cls-7" d="M1207,3256.7a3.23,3.23,0,0,1-3.37,3.13h0a3.26,3.26,0,0,1-3.14-3.38h0a3.28,3.28,0,0,1,3.38-3.14h0a3.25,3.25,0,0,1,1.52.45h0A3.19,3.19,0,0,1,1207,3256.7Z" transform="translate(124.35 0.59)"/><path class="cls-7" d="M1269.77,3302.77a3.23,3.23,0,0,1-2,4.12h0a3.24,3.24,0,0,1-4.13-2.06h0a3.25,3.25,0,0,1,2.07-4.12h0a3.24,3.24,0,0,1,2.66.27h0A3.13,3.13,0,0,1,1269.77,3302.77Z" transform="translate(124.35 0.59)"/><path class="cls-7" d="M1211.29,3277.6h0a3.27,3.27,0,0,1-1.56,4.34h0a3.25,3.25,0,0,1-4.33-1.54h0a3.26,3.26,0,0,1,1.53-4.35h0a3.26,3.26,0,0,1,3,.12h0A3.33,3.33,0,0,1,1211.29,3277.6Z" transform="translate(124.35 0.59)"/><path class="cls-7" d="M1247.1,3306.19a3.28,3.28,0,0,1-3.74,2.7h0a3.26,3.26,0,0,1-2.7-3.75h0a3.26,3.26,0,0,1,3.74-2.7h0a3.13,3.13,0,0,1,1.12.4h0A3.29,3.29,0,0,1,1247.1,3306.19Z" transform="translate(124.35 0.59)"/><path class="cls-7" d="M1224.77,3294.09a3.28,3.28,0,0,1,.67,4.57h0a3.27,3.27,0,0,1-4.57.65h0a3.25,3.25,0,0,1-.65-4.57h0a3.25,3.25,0,0,1,4.24-.86h0A3.37,3.37,0,0,1,1224.77,3294.09Z" transform="translate(124.35 0.59)"/><path class="cls-12" d="M401.09,2558a4.92,4.92,0,0,1-6.45,2.59h0a4.91,4.91,0,0,1-2.59-6.46h0a4.92,4.92,0,0,1,6.46-2.59h0c.19.09.37.17.54.27h0A4.93,4.93,0,0,1,401.09,2558Z" transform="translate(124.35 0.59)"/><path class="cls-7" d="M428,2573.66a4.92,4.92,0,0,1-.71,6.93h0a4.92,4.92,0,0,1-6.92-.7h0a5,5,0,0,1,.7-6.93h0a5,5,0,0,1,5.59-.44h0A5.15,5.15,0,0,1,428,2573.66Z" transform="translate(124.35 0.59)"/><path class="cls-7" d="M367.42,2550a5,5,0,0,1-4.52,5.3h0a4.92,4.92,0,0,1-5.29-4.51h0a4.92,4.92,0,0,1,4.5-5.31h0a5,5,0,0,1,2.87.66h0A4.92,4.92,0,0,1,367.42,2550Z" transform="translate(124.35 0.59)"/><path class="cls-7" d="M443.73,2607a4.92,4.92,0,0,1-3.83,5.81h0a4.93,4.93,0,0,1-5.81-3.84h0a4.93,4.93,0,0,1,3.84-5.81h0a4.92,4.92,0,0,1,3.45.56h0A4.87,4.87,0,0,1,443.73,2607Z" transform="translate(124.35 0.59)"/><path class="cls-7" d="M333.91,2558.68a4.93,4.93,0,0,1-1.55,6.79h0a4.91,4.91,0,0,1-6.78-1.55h0a4.91,4.91,0,0,1,1.54-6.78h0a4.92,4.92,0,0,1,5.1-.09h0A4.87,4.87,0,0,1,333.91,2558.68Z" transform="translate(124.35 0.59)"/><path class="cls-12" d="M442.25,2643.85a4.93,4.93,0,0,1-6.11,3.34h0a4.91,4.91,0,0,1-3.34-6.09h0a4.93,4.93,0,0,1,6.09-3.35h0a4.75,4.75,0,0,1,1.11.47h0A4.94,4.94,0,0,1,442.25,2643.85Z" transform="translate(124.35 0.59)"/><path class="cls-12" d="M310.05,2588.63l-.07.11h0l-.06.11h0a4.9,4.9,0,0,1-6.72,1.81h0a4.91,4.91,0,0,1-1.82-6.7h0a1.15,1.15,0,0,0,.08-.14h0l.08-.13h0a4.91,4.91,0,0,1,6.72-1.79h0A4.91,4.91,0,0,1,310.05,2588.63Z" transform="translate(124.35 0.59)"/><path class="cls-7" d="M423.65,2668.82a4.92,4.92,0,0,1,.16,6.95h0a5,5,0,0,1-7,.15h0a4.93,4.93,0,0,1-.13-7h0a4.91,4.91,0,0,1,6-.86h0A4.55,4.55,0,0,1,423.65,2668.82Z" transform="translate(124.35 0.59)"/><path class="cls-12" d="M301,2619.76a4.94,4.94,0,0,1-5.11,4.72h0a4.91,4.91,0,0,1-4.72-5.09h0a4.92,4.92,0,0,1,5.1-4.74h0a4.92,4.92,0,0,1,2.27.65h0A4.94,4.94,0,0,1,301,2619.76Z" transform="translate(124.35 0.59)"/><path class="cls-7" d="M395.74,2689.25a4.9,4.9,0,0,1-3.12,6.21h0a4.9,4.9,0,0,1-6.22-3.1h0a4.94,4.94,0,0,1,3.11-6.23h0a4.9,4.9,0,0,1,4,.43h0A4.92,4.92,0,0,1,395.74,2689.25Z" transform="translate(124.35 0.59)"/><path class="cls-7" d="M307.48,2651.28a4.9,4.9,0,0,1-2.32,6.55h0a4.92,4.92,0,0,1-6.55-2.34h0a4.9,4.9,0,0,1,2.33-6.55h0a4.88,4.88,0,0,1,4.58.19h0A4.83,4.83,0,0,1,307.48,2651.28Z" transform="translate(124.35 0.59)"/><path class="cls-7" d="M361.52,2694.4a4.91,4.91,0,0,1-5.64,4.07h0a4.94,4.94,0,0,1-4.08-5.65h0a4.92,4.92,0,0,1,5.64-4.06h0a4.78,4.78,0,0,1,1.7.6h0A4.91,4.91,0,0,1,361.52,2694.4Z" transform="translate(124.35 0.59)"/><path class="cls-12" d="M327.86,2676.16a4.93,4.93,0,0,1,1,6.89h0a4.94,4.94,0,0,1-6.89,1h0a4.91,4.91,0,0,1-1-6.89h0a4.91,4.91,0,0,1,6.39-1.32h0C327.53,2675.93,327.69,2676.05,327.86,2676.16Z" transform="translate(124.35 0.59)"/><path class="cls-7" d="M395.1,2569.67a4,4,0,0,1-5.28,2.11h0a4,4,0,0,1-2.11-5.29h0a4,4,0,0,1,5.28-2.11h0a3.74,3.74,0,0,1,.45.22h0A4,4,0,0,1,395.1,2569.67Z" transform="translate(124.35 0.59)"/><path class="cls-7" d="M417.11,2582.53a4,4,0,0,1-.59,5.65h0a4,4,0,0,1-5.66-.57h0a4,4,0,0,1,.57-5.66h0a4,4,0,0,1,4.57-.37h0A4.13,4.13,0,0,1,417.11,2582.53Z" transform="translate(124.35 0.59)"/><path class="cls-7" d="M367.56,2563.18a4,4,0,0,1-3.69,4.35h0a4,4,0,0,1-4.34-3.7h0a4,4,0,0,1,3.69-4.34h0a4.12,4.12,0,0,1,2.34.54h0A4.06,4.06,0,0,1,367.56,2563.18Z" transform="translate(124.35 0.59)"/><path class="cls-7" d="M430,2609.8a4,4,0,0,1-3.14,4.74h0a4,4,0,0,1-4.75-3.13h0a4,4,0,0,1,3.14-4.76h0a4,4,0,0,1,2.83.46h0A4,4,0,0,1,430,2609.8Z" transform="translate(124.35 0.59)"/><path class="cls-12" d="M340.14,2570.25a4,4,0,0,1-1.27,5.56h0a4,4,0,0,1-5.54-1.26h0a4,4,0,0,1,1.26-5.55h0a4,4,0,0,1,4.17-.08h0A4,4,0,0,1,340.14,2570.25Z" transform="translate(124.35 0.59)"/><path class="cls-7" d="M428.78,2639.94a4,4,0,0,1-5,2.74h0a4,4,0,0,1-2.75-5h0a4,4,0,0,1,5-2.73h0a4,4,0,0,1,.9.38h0A4,4,0,0,1,428.78,2639.94Z" transform="translate(124.35 0.59)"/><path class="cls-7" d="M320.63,2594.76h0l0,0h0a.59.59,0,0,1-.06.14h0a4,4,0,0,1-5.5,1.49h0a4,4,0,0,1-1.48-5.5h0l.07-.12h0l.06-.1h0a4,4,0,0,1,5.5-1.47h0A4,4,0,0,1,320.63,2594.76Z" transform="translate(124.35 0.59)"/><path class="cls-7" d="M413.57,2660.37a4,4,0,0,1,.11,5.7h0a4,4,0,0,1-5.7.11h0a4,4,0,0,1-.12-5.7h0a4,4,0,0,1,4.93-.69h0A3.83,3.83,0,0,1,413.57,2660.37Z" transform="translate(124.35 0.59)"/><path class="cls-7" d="M313.23,2620.24a4,4,0,0,1-4.18,3.86h0a4,4,0,0,1-3.87-4.17h0a4,4,0,0,1,4.18-3.87h0a4,4,0,0,1,1.87.53h0A4.1,4.1,0,0,1,313.23,2620.24Z" transform="translate(124.35 0.59)"/><path class="cls-12" d="M390.73,2677.09a4,4,0,0,1-2.55,5.08h0a4,4,0,0,1-5.09-2.53h0a4.06,4.06,0,0,1,2.55-5.11h0a4.06,4.06,0,0,1,3.3.35h0A4,4,0,0,1,390.73,2677.09Z" transform="translate(124.35 0.59)"/><path class="cls-7" d="M318.54,2646a4,4,0,0,1-1.92,5.37h0a4,4,0,0,1-5.36-1.91h0a4,4,0,0,1,1.9-5.37h0a4.08,4.08,0,0,1,3.76.16h0A4,4,0,0,1,318.54,2646Z" transform="translate(124.35 0.59)"/><path class="cls-7" d="M362.73,2681.3a4,4,0,0,1-4.61,3.34h0a4,4,0,0,1-3.32-4.62h0a4,4,0,0,1,4.6-3.34h0a3.93,3.93,0,0,1,1.38.5h0A4,4,0,0,1,362.73,2681.3Z" transform="translate(124.35 0.59)"/><path class="cls-7" d="M335.18,2666.38A4,4,0,0,1,336,2672h0a4,4,0,0,1-5.64.81h0a4,4,0,0,1-.81-5.63h0a4,4,0,0,1,5.25-1.07h0A2,2,0,0,1,335.18,2666.38Z" transform="translate(124.35 0.59)"/><path class="cls-7" d="M390,2579.67a3.24,3.24,0,0,1-4.27,1.71h0a3.26,3.26,0,0,1-1.72-4.29h0a3.26,3.26,0,0,1,4.29-1.7h0a2.91,2.91,0,0,1,.35.18h0A3.26,3.26,0,0,1,390,2579.67Z" transform="translate(124.35 0.59)"/><path class="cls-7" d="M407.82,2590.09h0a3.25,3.25,0,0,1-.47,4.58h0a3.26,3.26,0,0,1-4.59-.46h0a3.28,3.28,0,0,1,.47-4.59h0a3.24,3.24,0,0,1,3.69-.3h0A3,3,0,0,1,407.82,2590.09Z" transform="translate(124.35 0.59)"/><path class="cls-7" d="M367.68,2574.42a3.26,3.26,0,0,1-3,3.52h0a3.29,3.29,0,0,1-3.52-3h0a3.28,3.28,0,0,1,3-3.52h0a3.28,3.28,0,0,1,1.91.44h0A3.22,3.22,0,0,1,367.68,2574.42Z" transform="translate(124.35 0.59)"/><path class="cls-12" d="M418.27,2612.19a3.25,3.25,0,0,1-2.53,3.84h0a3.27,3.27,0,0,1-3.86-2.54h0a3.28,3.28,0,0,1,2.54-3.86h0a3.35,3.35,0,0,1,2.28.38h0A3.24,3.24,0,0,1,418.27,2612.19Z" transform="translate(124.35 0.59)"/><path class="cls-7" d="M345.47,2580.15a3.25,3.25,0,0,1-1,4.5h0a3.25,3.25,0,0,1-4.48-1h0a3.25,3.25,0,0,1,1-4.49h0a3.3,3.3,0,0,1,3.4-.06h0A3.27,3.27,0,0,1,345.47,2580.15Z" transform="translate(124.35 0.59)"/><path class="cls-7" d="M417.28,2636.6a3.25,3.25,0,0,1-4,2.23h0a3.29,3.29,0,0,1-2.23-4h0a3.27,3.27,0,0,1,4.06-2.22h0a3.52,3.52,0,0,1,.71.3h0A3.25,3.25,0,0,1,417.28,2636.6Z" transform="translate(124.35 0.59)"/><path class="cls-12" d="M329.65,2600l0,.08h0l0,.08h0a3.24,3.24,0,0,1-4.44,1.19h0a3.27,3.27,0,0,1-1.21-4.46h0l.06-.07h0s0-.07,0-.1h0a3.27,3.27,0,0,1,4.46-1.18h0A3.25,3.25,0,0,1,329.65,2600Z" transform="translate(124.35 0.59)"/><path class="cls-12" d="M405,2653.16a3.25,3.25,0,0,1,.1,4.6h0a3.27,3.27,0,0,1-4.62.11h0a3.28,3.28,0,0,1-.08-4.62h0a3.24,3.24,0,0,1,4-.57h0A3.13,3.13,0,0,1,405,2653.16Z" transform="translate(124.35 0.59)"/><path class="cls-7" d="M323.65,2620.63a3.23,3.23,0,0,1-3.37,3.13h0a3.26,3.26,0,0,1-3.14-3.38h0a3.28,3.28,0,0,1,3.38-3.14h0a3.25,3.25,0,0,1,1.52.45h0A3.21,3.21,0,0,1,323.65,2620.63Z" transform="translate(124.35 0.59)"/><path class="cls-7" d="M386.45,2666.7a3.24,3.24,0,0,1-2.05,4.12h0a3.26,3.26,0,0,1-4.14-2.06h0a3.26,3.26,0,0,1,2.08-4.12h0a3.24,3.24,0,0,1,2.66.27h0A3.17,3.17,0,0,1,386.45,2666.7Z" transform="translate(124.35 0.59)"/><path class="cls-7" d="M328,2641.53h0a3.29,3.29,0,0,1-1.56,4.35h0a3.26,3.26,0,0,1-4.33-1.55h0a3.24,3.24,0,0,1,1.53-4.34h0a3.23,3.23,0,0,1,3,.11h0A3.39,3.39,0,0,1,328,2641.53Z" transform="translate(124.35 0.59)"/><path class="cls-7" d="M363.78,2670.12a3.28,3.28,0,0,1-3.75,2.7h0a3.26,3.26,0,0,1-2.69-3.75h0a3.26,3.26,0,0,1,3.74-2.7h0a3.41,3.41,0,0,1,1.12.4h0A3.29,3.29,0,0,1,363.78,2670.12Z" transform="translate(124.35 0.59)"/><path class="cls-7" d="M341.45,2658a3.29,3.29,0,0,1,.67,4.57h0a3.27,3.27,0,0,1-4.57.65h0a3.25,3.25,0,0,1-.65-4.57h0a3.25,3.25,0,0,1,4.24-.86h0A3.37,3.37,0,0,1,341.45,2658Z" transform="translate(124.35 0.59)"/><path class="cls-12" d="M315.32,4241.81a8.34,8.34,0,1,1-11.79.47A8.35,8.35,0,0,1,315.32,4241.81Z" transform="translate(124.35 0.59)"/><path class="cls-12" d="M414.52,4134.37a8.34,8.34,0,1,1-11.79.47A8.35,8.35,0,0,1,414.52,4134.37Z" transform="translate(124.35 0.59)"/><path class="cls-7" d="M447.58,4098.56a8.34,8.34,0,1,1-11.78.47A8.32,8.32,0,0,1,447.58,4098.56Z" transform="translate(124.35 0.59)"/><path class="cls-12" d="M315.87,4176a8.34,8.34,0,1,1-11.78.47A8.34,8.34,0,0,1,315.87,4176Z" transform="translate(124.35 0.59)"/><path class="cls-12" d="M348.94,4140.17a8.34,8.34,0,1,1-11.79.47A8.34,8.34,0,0,1,348.94,4140.17Z" transform="translate(124.35 0.59)"/><path class="cls-12" d="M250.29,4181.77a8.34,8.34,0,1,1-11.78.47A8.34,8.34,0,0,1,250.29,4181.77Z" transform="translate(124.35 0.59)"/><path class="cls-7" d="M283.35,4146a8.34,8.34,0,1,1-11.78.47A8.32,8.32,0,0,1,283.35,4146Z" transform="translate(124.35 0.59)"/><path class="cls-12" d="M316.42,4110.15a8.34,8.34,0,1,1-11.78.47A8.34,8.34,0,0,1,316.42,4110.15Z" transform="translate(124.35 0.59)"/><path class="cls-12" d="M349.49,4074.33a8.34,8.34,0,1,1-11.78.47A8.35,8.35,0,0,1,349.49,4074.33Z" transform="translate(124.35 0.59)"/><path class="cls-12" d="M382.55,4038.52a8.34,8.34,0,1,1-11.78.47A8.32,8.32,0,0,1,382.55,4038.52Z" transform="translate(124.35 0.59)"/><path class="cls-7" d="M217.77,4151.75a8.34,8.34,0,1,1-11.78.47A8.32,8.32,0,0,1,217.77,4151.75Z" transform="translate(124.35 0.59)"/><path class="cls-12" d="M283.91,4080.13a8.34,8.34,0,1,1-11.79.47A8.34,8.34,0,0,1,283.91,4080.13Z" transform="translate(124.35 0.59)"/><path class="cls-7" d="M317,4044.31a8.34,8.34,0,1,1-11.78.47A8.32,8.32,0,0,1,317,4044.31Z" transform="translate(124.35 0.59)"/><path class="cls-12" d="M1578,3052.28a8.34,8.34,0,1,1-11.77.68A8.33,8.33,0,0,1,1578,3052.28Z" transform="translate(124.35 0.59)"/><path class="cls-7" d="M1610.42,3015.85a8.34,8.34,0,1,1-11.77.69A8.34,8.34,0,0,1,1610.42,3015.85Z" transform="translate(124.35 0.59)"/><path class="cls-12" d="M1675.21,2943a8.34,8.34,0,1,1-11.78.69A8.34,8.34,0,0,1,1675.21,2943Z" transform="translate(124.35 0.59)"/><path class="cls-7" d="M1707.6,2906.59a8.34,8.34,0,1,1-11.77.68A8.34,8.34,0,0,1,1707.6,2906.59Z" transform="translate(124.35 0.59)"/><path class="cls-12" d="M1577.35,2986.44a8.34,8.34,0,1,1-11.77.69A8.34,8.34,0,0,1,1577.35,2986.44Z" transform="translate(124.35 0.59)"/><path class="cls-12" d="M1609.74,2950a8.34,8.34,0,1,1-11.77.69A8.34,8.34,0,0,1,1609.74,2950Z" transform="translate(124.35 0.59)"/><path class="cls-7" d="M1642.14,2913.6a8.34,8.34,0,1,1-11.77.69A8.34,8.34,0,0,1,1642.14,2913.6Z" transform="translate(124.35 0.59)"/><path class="cls-7" d="M1544.28,2957a8.34,8.34,0,1,1-11.77.69A8.34,8.34,0,0,1,1544.28,2957Z" transform="translate(124.35 0.59)"/><path class="cls-12" d="M1576.68,2920.61a8.34,8.34,0,1,1-11.77.69A8.34,8.34,0,0,1,1576.68,2920.61Z" transform="translate(124.35 0.59)"/><path class="cls-12" d="M1609.07,2884.19a8.34,8.34,0,1,1-11.77.69A8.34,8.34,0,0,1,1609.07,2884.19Z" transform="translate(124.35 0.59)"/><path class="cls-12" d="M1641.46,2847.77a8.34,8.34,0,1,1-11.77.68A8.34,8.34,0,0,1,1641.46,2847.77Z" transform="translate(124.35 0.59)"/><path class="cls-7" d="M1478.82,2964.05a8.34,8.34,0,1,1-11.77.68A8.34,8.34,0,0,1,1478.82,2964.05Z" transform="translate(124.35 0.59)"/><path class="cls-12" d="M1543.61,2891.2a8.34,8.34,0,1,1-11.77.69A8.34,8.34,0,0,1,1543.61,2891.2Z" transform="translate(124.35 0.59)"/><path class="cls-7" d="M1576,2854.78a8.34,8.34,0,1,1-11.77.69A8.34,8.34,0,0,1,1576,2854.78Z" transform="translate(124.35 0.59)"/><circle class="cls-13" cx="721.6" cy="3782.59" r="33.21"/><path class="cls-7" d="M1452.58,2439.2a43.43,43.43,0,1,1-43.43-43.43A43.47,43.47,0,0,1,1452.58,2439.2Zm-66.42,0a23,23,0,1,0,23-23A23,23,0,0,0,1386.16,2439.2Z" transform="translate(124.35 0.59)"/><path class="cls-8" d="M1405.32,2486.45A43.43,43.43,0,1,1,1361.9,2443,43.47,43.47,0,0,1,1405.32,2486.45Zm-66.42,0a23,23,0,1,0,23-23A23,23,0,0,0,1338.9,2486.45Z" transform="translate(124.35 0.59)"/><circle class="cls-16" cx="777.8" cy="2535.57" r="20.86"/><path class="cls-15" d="M1028.11,3887.17a11.92,11.92,0,1,1-11.92,11.92A11.92,11.92,0,0,1,1028.11,3887.17Z" transform="translate(124.35 0.59)"/><path class="cls-12" d="M1036,3879.29a11.92,11.92,0,1,1-11.92,11.92A11.93,11.93,0,0,1,1036,3879.29Z" transform="translate(124.35 0.59)"/><path class="cls-12" d="M1091.14,2531.39a35,35,0,0,1,49.81,0l-49.81,50.29A35.8,35.8,0,0,1,1091.14,2531.39Z" transform="translate(124.35 0.59)"/><path class="cls-6" d="M1114.45,2622.34a35,35,0,0,1-49.8,0l49.81-50.29A35.79,35.79,0,0,1,1114.45,2622.34Z" transform="translate(124.35 0.59)"/></g></svg>